<svg width="696mm" height="243mm" viewBox="0 0 696 243" xmlns="http://www.w3.org/2000/svg" version="1.1" preserveAspectRatio="xMidYMid meet"><g id="svgGroup" stroke-linecap="round" fill-rule="evenodd" font-size="9pt" stroke="#000" stroke-width="0.25mm" fill="none" style="stroke:#000;stroke-width:0.25mm;fill:none"><path d="M 0 123 L 0 141.414 L 3 141.414 L 3 169.138 L 0 169.138 L 0 196.862 L 3 196.862 L 3 224.586 L 0 224.586 L 0 243 L 25.242 243 L 25.242 240 L 52.966 240 L 52.966 243 L 80.69 243 L 80.69 240 L 108.414 240 L 108.414 243 L 136.138 243 L 136.138 240 L 163.862 240 L 163.862 243 L 191.586 243 L 191.586 240 L 219.31 240 L 219.31 243 L 247.034 243 L 247.034 240 L 274.758 240 L 274.758 243 L 300 243 L 300 224.586 L 297 224.586 L 297 196.862 L 300 196.862 L 300 169.138 L 297 169.138 L 297 141.414 L 300 141.414 L 300 123 L 0 123 Z" id="front_outsideCutPath" stroke="#FF0000" stroke-width="0.1" style="stroke:#FF0000;stroke-width:0.1" vector-effect="non-scaling-stroke"/><path d="M 167.49 192.064 L 165.545 192.064 L 165.545 183.756 Q 165.545 182.185 164.83 181.412 A 2.193 2.193 0 0 0 163.931 180.838 Q 163.577 180.713 163.143 180.666 A 5.157 5.157 0 0 0 162.592 180.638 A 5.888 5.888 0 0 0 161.49 180.734 Q 160.876 180.852 160.404 181.111 A 2.743 2.743 0 0 0 159.639 181.728 Q 158.782 182.724 158.708 184.903 A 12.463 12.463 0 0 0 158.701 185.326 L 158.701 192.064 L 156.756 192.064 L 156.756 179.22 L 158.338 179.22 L 158.654 180.978 L 158.748 180.978 Q 159.346 180.029 160.424 179.508 A 5.268 5.268 0 0 1 162.298 179.008 A 6.37 6.37 0 0 1 162.826 178.986 A 7.68 7.68 0 0 1 164.133 179.09 Q 164.84 179.212 165.399 179.478 A 3.496 3.496 0 0 1 166.318 180.105 A 3.371 3.371 0 0 1 167.14 181.395 Q 167.337 181.926 167.423 182.585 A 8.489 8.489 0 0 1 167.49 183.685 L 167.49 192.064 Z M 130.119 179.22 L 130.119 180.732 L 126.85 180.732 L 126.85 192.064 L 124.904 192.064 L 124.904 180.732 L 122.607 180.732 L 122.607 179.853 L 124.904 179.15 L 124.904 178.435 Q 124.904 174.348 127.987 173.789 A 5.913 5.913 0 0 1 129.041 173.701 Q 129.834 173.701 130.839 173.949 A 12.593 12.593 0 0 1 131.432 174.111 L 130.928 175.67 A 9.446 9.446 0 0 0 130.193 175.463 Q 129.822 175.375 129.495 175.337 A 4.184 4.184 0 0 0 129.006 175.306 A 2.623 2.623 0 0 0 128.373 175.378 A 1.685 1.685 0 0 0 127.377 176.039 Q 126.85 176.771 126.85 178.388 L 126.85 179.22 L 130.119 179.22 Z M 177.393 190.459 L 177.393 191.947 Q 177.107 192.085 176.577 192.179 A 7.276 7.276 0 0 1 176.461 192.199 Q 175.887 192.292 175.419 192.298 A 4.987 4.987 0 0 1 175.354 192.299 A 5.081 5.081 0 0 1 173.856 192.097 Q 172.21 191.589 171.78 189.801 A 6.115 6.115 0 0 1 171.627 188.373 L 171.627 180.732 L 169.787 180.732 L 169.787 179.795 L 171.627 178.986 L 172.447 176.244 L 173.572 176.244 L 173.572 179.22 L 177.299 179.22 L 177.299 180.732 L 173.572 180.732 L 173.572 188.291 Q 173.572 189.106 173.844 189.655 A 1.887 1.887 0 0 0 174.123 190.072 A 1.807 1.807 0 0 0 175.234 190.663 A 2.6 2.6 0 0 0 175.635 190.693 A 6.389 6.389 0 0 0 176.571 190.626 A 5.888 5.888 0 0 0 176.631 190.617 Q 177.089 190.544 177.366 190.466 A 2.926 2.926 0 0 0 177.393 190.459 Z M 139.857 179.127 L 139.588 180.931 Q 138.924 180.785 138.39 180.761 A 4.563 4.563 0 0 0 138.182 180.756 A 3.371 3.371 0 0 0 135.691 181.831 A 4.611 4.611 0 0 0 135.516 182.021 A 4.442 4.442 0 0 0 134.444 184.516 A 5.905 5.905 0 0 0 134.408 185.174 L 134.408 192.064 L 132.463 192.064 L 132.463 179.22 L 134.068 179.22 L 134.291 181.599 L 134.385 181.599 A 6.569 6.569 0 0 1 135.119 180.55 A 5.018 5.018 0 0 1 136.107 179.666 A 3.878 3.878 0 0 1 138.322 178.986 A 8.931 8.931 0 0 1 139.122 179.02 A 6.518 6.518 0 0 1 139.857 179.127 Z M 151.764 190.535 A 5.427 5.427 0 0 0 152.41 189.647 Q 153.346 188.046 153.346 185.631 Q 153.346 182.572 151.758 180.779 Q 150.17 178.986 147.475 178.986 A 7.555 7.555 0 0 0 146.118 179.103 A 5.145 5.145 0 0 0 143.115 180.738 Q 142.072 181.901 141.722 183.677 A 10.101 10.101 0 0 0 141.545 185.631 A 9.732 9.732 0 0 0 141.667 187.207 A 7.196 7.196 0 0 0 142.271 189.17 A 6.394 6.394 0 0 0 142.413 189.447 A 5.266 5.266 0 0 0 144.334 191.49 A 5.417 5.417 0 0 0 145.577 192.043 A 6.247 6.247 0 0 0 147.393 192.299 A 7.554 7.554 0 0 0 148.712 192.188 A 5.186 5.186 0 0 0 151.764 190.535 Z M 143.561 185.631 A 9.851 9.851 0 0 0 143.654 187.038 Q 143.758 187.752 143.975 188.331 A 4.081 4.081 0 0 0 144.545 189.381 A 3.188 3.188 0 0 0 146.621 190.603 A 4.831 4.831 0 0 0 147.439 190.67 A 4.518 4.518 0 0 0 148.632 190.521 A 3.145 3.145 0 0 0 150.34 189.386 Q 151.076 188.432 151.265 186.82 A 10.247 10.247 0 0 0 151.33 185.631 A 9.706 9.706 0 0 0 151.238 184.247 Q 151.137 183.543 150.923 182.973 A 4.005 4.005 0 0 0 150.34 181.91 A 3.2 3.2 0 0 0 148.35 180.723 A 4.906 4.906 0 0 0 147.416 180.638 A 4.63 4.63 0 0 0 146.263 180.773 A 3.098 3.098 0 0 0 144.533 181.892 Q 143.833 182.795 143.637 184.335 A 10.28 10.28 0 0 0 143.561 185.631 Z" id="front_labelLayer" stroke="#777777" fill="#777777" style="stroke:#777777;fill:#777777" vector-effect="non-scaling-stroke"/><path d="M 306 123 L 306 141.414 L 303 141.414 L 303 169.138 L 306 169.138 L 306 196.862 L 303 196.862 L 303 224.586 L 306 224.586 L 306 243 L 334.138 243 L 334.138 240 L 361.862 240 L 361.862 243 L 389.586 243 L 390 243 L 390 224.586 L 393 224.586 L 393 196.862 L 390 196.862 L 390 169.138 L 393 169.138 L 393 141.414 L 390 141.414 L 390 123 L 306 123 Z" id="left_outsideCutPath" stroke="#FF0000" stroke-width="0.1" style="stroke:#FF0000;stroke-width:0.1" vector-effect="non-scaling-stroke"/><path d="M 354.403 180.165 L 354.403 181.299 L 351.951 181.299 L 351.951 189.798 L 350.492 189.798 L 350.492 181.299 L 348.769 181.299 L 348.769 180.64 L 350.492 180.113 L 350.492 179.576 A 5.913 5.913 0 0 1 350.63 178.236 Q 351.057 176.409 352.804 176.092 A 4.435 4.435 0 0 1 353.594 176.026 Q 354.189 176.026 354.942 176.212 A 9.445 9.445 0 0 1 355.387 176.333 L 355.009 177.502 A 7.085 7.085 0 0 0 354.458 177.347 Q 354.18 177.282 353.935 177.253 A 3.138 3.138 0 0 0 353.568 177.23 Q 352.742 177.23 352.346 177.779 Q 351.951 178.328 351.951 179.541 L 351.951 180.165 L 354.403 180.165 Z M 347.574 184.323 L 347.574 185.245 L 340.938 185.245 A 5.856 5.856 0 0 0 341.041 186.226 Q 341.146 186.76 341.357 187.181 A 2.739 2.739 0 0 0 341.795 187.821 A 2.651 2.651 0 0 0 343.187 188.605 A 4.017 4.017 0 0 0 344.084 188.7 A 7.706 7.706 0 0 0 346.97 188.128 A 8.83 8.83 0 0 0 347.161 188.049 L 347.161 189.35 Q 346.387 189.684 345.697 189.829 A 6.125 6.125 0 0 1 345.09 189.923 Q 344.611 189.974 344.032 189.974 A 5.67 5.67 0 0 1 342.613 189.806 A 4.015 4.015 0 0 1 340.661 188.673 A 4.294 4.294 0 0 1 339.634 186.787 Q 339.455 186.118 339.43 185.324 A 8.334 8.334 0 0 1 339.426 185.061 Q 339.426 183.162 340.188 181.9 A 4.32 4.32 0 0 1 340.573 181.361 A 3.739 3.739 0 0 1 343.298 180.002 A 5.158 5.158 0 0 1 343.654 179.99 A 4.445 4.445 0 0 1 344.905 180.157 A 3.382 3.382 0 0 1 346.519 181.18 A 4.079 4.079 0 0 1 347.443 183.045 A 5.938 5.938 0 0 1 347.574 184.323 Z M 360.59 188.594 L 360.59 189.71 Q 360.376 189.813 359.979 189.884 A 5.454 5.454 0 0 1 359.892 189.899 A 6.324 6.324 0 0 1 359.479 189.953 Q 359.257 189.974 359.061 189.974 Q 356.266 189.974 356.266 187.03 L 356.266 181.299 L 354.886 181.299 L 354.886 180.596 L 356.266 179.99 L 356.881 177.933 L 357.725 177.933 L 357.725 180.165 L 360.52 180.165 L 360.52 181.299 L 357.725 181.299 L 357.725 186.968 Q 357.725 187.579 357.929 187.991 A 1.415 1.415 0 0 0 358.138 188.304 A 1.355 1.355 0 0 0 358.971 188.748 A 1.95 1.95 0 0 0 359.272 188.77 Q 359.659 188.77 360.019 188.713 A 7.892 7.892 0 0 0 360.23 188.677 Q 360.431 188.639 360.571 188.6 A 2.189 2.189 0 0 0 360.59 188.594 Z M 336.869 176.122 L 336.869 189.798 L 335.41 189.798 L 335.41 176.122 L 336.869 176.122 Z M 340.973 184.059 L 346.009 184.059 A 4.972 4.972 0 0 0 345.949 183.26 Q 345.817 182.45 345.394 181.945 Q 344.779 181.211 343.636 181.211 A 2.876 2.876 0 0 0 342.805 181.325 A 2.222 2.222 0 0 0 341.786 181.967 Q 341.096 182.723 340.973 184.059 Z" id="left_labelLayer" stroke="#777777" fill="#777777" style="stroke:#777777;fill:#777777" vector-effect="non-scaling-stroke"/><path d="M 0 0 L 0 18.414 L 3 18.414 L 3 46.138 L 0 46.138 L 0 73.862 L 3 73.862 L 3 101.586 L 0 101.586 L 0 120 L 25.242 120 L 25.242 117 L 52.966 117 L 52.966 120 L 80.69 120 L 80.69 117 L 108.414 117 L 108.414 120 L 136.138 120 L 136.138 117 L 163.862 117 L 163.862 120 L 191.586 120 L 191.586 117 L 219.31 117 L 219.31 120 L 247.034 120 L 247.034 117 L 274.758 117 L 274.758 120 L 300 120 L 300 101.586 L 297 101.586 L 297 73.862 L 300 73.862 L 300 46.138 L 297 46.138 L 297 18.414 L 300 18.414 L 300 0 L 0 0 Z" id="back_outsideCutPath" stroke="#FF0000" stroke-width="0.1" style="stroke:#FF0000;stroke-width:0.1" vector-effect="non-scaling-stroke"/><path d="M 166.43 62.426 L 166.523 62.426 A 11.516 11.516 0 0 1 166.808 62.04 Q 167.136 61.614 167.604 61.07 A 41.799 41.799 0 0 1 168.059 60.551 L 172.207 56.156 L 174.516 56.156 L 169.313 61.629 L 174.879 69 L 172.523 69 L 167.988 62.93 L 166.523 64.195 L 166.523 69 L 164.602 69 L 164.602 50.765 L 166.523 50.765 L 166.523 60.433 Q 166.523 61.066 166.433 62.377 A 80.539 80.539 0 0 1 166.43 62.426 Z M 127.066 67.348 L 126.926 67.348 L 126.516 69 L 125.121 69 L 125.121 50.765 L 127.066 50.765 L 127.066 55.195 A 40.558 40.558 0 0 1 127.044 56.565 Q 127.022 57.214 126.979 57.79 A 24.315 24.315 0 0 1 126.973 57.867 L 127.066 57.867 A 4.423 4.423 0 0 1 130.295 55.992 A 6.644 6.644 0 0 1 131.098 55.945 A 5.946 5.946 0 0 1 132.771 56.168 A 4.451 4.451 0 0 1 135.029 57.674 Q 136.151 59.058 136.374 61.363 A 12.486 12.486 0 0 1 136.43 62.566 A 11.406 11.406 0 0 1 136.279 64.485 Q 135.968 66.303 135.018 67.482 A 4.605 4.605 0 0 1 131.744 69.203 A 6.598 6.598 0 0 1 131.098 69.234 A 5.901 5.901 0 0 1 129.615 69.053 A 5.134 5.134 0 0 1 128.807 68.771 A 4.309 4.309 0 0 1 127.066 67.348 Z M 149.168 69 L 147.727 69 L 147.34 67.172 L 147.246 67.172 Q 146.568 68.024 145.892 68.488 A 3.584 3.584 0 0 1 145.33 68.807 A 4.486 4.486 0 0 1 144.404 69.099 Q 143.75 69.234 142.945 69.234 Q 141.035 69.234 139.951 68.25 A 3.197 3.197 0 0 1 138.987 66.564 A 4.895 4.895 0 0 1 138.867 65.449 Q 138.867 61.684 144.694 61.387 A 19.003 19.003 0 0 1 145.09 61.371 L 147.27 61.301 L 147.27 60.504 Q 147.27 59.58 147.027 58.951 A 2.171 2.171 0 0 0 146.619 58.271 A 1.975 1.975 0 0 0 145.81 57.744 Q 145.487 57.626 145.085 57.58 A 4.806 4.806 0 0 0 144.539 57.551 A 6.334 6.334 0 0 0 143.081 57.732 Q 142.062 57.974 140.906 58.535 L 140.309 57.047 A 8.969 8.969 0 0 1 142.04 56.335 A 10.209 10.209 0 0 1 142.389 56.238 A 9.009 9.009 0 0 1 144.656 55.945 A 8.216 8.216 0 0 1 145.908 56.034 Q 146.551 56.133 147.064 56.344 A 3.311 3.311 0 0 1 148.061 56.965 A 3.08 3.08 0 0 1 148.855 58.191 Q 149.041 58.694 149.116 59.32 A 7.654 7.654 0 0 1 149.168 60.234 L 149.168 69 Z M 161.742 56.59 L 161.145 58.242 Q 160.5 57.984 159.738 57.814 Q 159.087 57.669 158.564 57.648 A 4.312 4.312 0 0 0 158.391 57.644 A 4.315 4.315 0 0 0 156.638 57.974 Q 154.802 58.783 154.525 61.583 A 10.749 10.749 0 0 0 154.477 62.637 A 9.421 9.421 0 0 0 154.57 64.009 Q 154.672 64.704 154.888 65.269 A 4.035 4.035 0 0 0 155.432 66.269 A 3.09 3.09 0 0 0 157.433 67.466 A 4.706 4.706 0 0 0 158.262 67.535 A 8.143 8.143 0 0 0 160.508 67.208 A 10.054 10.054 0 0 0 161.555 66.844 L 161.555 68.566 A 5.533 5.533 0 0 1 160.201 69.045 Q 159.575 69.184 158.848 69.221 A 10.668 10.668 0 0 1 158.309 69.234 A 7.27 7.27 0 0 1 156.54 69.031 A 4.93 4.93 0 0 1 153.99 67.517 A 5.627 5.627 0 0 1 152.82 65.368 Q 152.461 64.181 152.461 62.66 A 10.733 10.733 0 0 1 152.627 60.708 Q 152.969 58.862 154.014 57.68 A 5.037 5.037 0 0 1 156.772 56.093 A 7.636 7.636 0 0 1 158.438 55.922 A 8.779 8.779 0 0 1 160.289 56.121 Q 161.215 56.32 161.742 56.59 Z M 128.697 58.057 A 2.587 2.587 0 0 0 127.945 58.717 Q 127.066 59.859 127.066 62.566 A 12.862 12.862 0 0 0 127.13 63.896 Q 127.27 65.237 127.717 66.053 A 2.934 2.934 0 0 0 127.969 66.439 A 2.822 2.822 0 0 0 129.4 67.405 Q 130.038 67.605 130.863 67.605 A 3.878 3.878 0 0 0 131.965 67.458 A 2.798 2.798 0 0 0 133.535 66.299 A 4.466 4.466 0 0 0 134.088 65.104 Q 134.261 64.536 134.342 63.849 A 11.147 11.147 0 0 0 134.414 62.543 A 11.493 11.493 0 0 0 134.345 61.233 Q 134.167 59.689 133.535 58.805 A 2.837 2.837 0 0 0 131.729 57.662 A 4.499 4.499 0 0 0 130.816 57.574 Q 129.521 57.574 128.697 58.057 Z M 147.223 63.844 L 147.223 62.683 L 145.277 62.765 Q 143.34 62.834 142.305 63.291 A 2.988 2.988 0 0 0 141.932 63.486 A 2.076 2.076 0 0 0 140.942 64.992 A 3.073 3.073 0 0 0 140.906 65.473 A 2.78 2.78 0 0 0 140.975 66.11 Q 141.091 66.601 141.4 66.938 A 1.733 1.733 0 0 0 141.545 67.078 Q 142.184 67.629 143.332 67.629 A 5.356 5.356 0 0 0 144.489 67.511 Q 145.295 67.333 145.889 66.885 A 3.248 3.248 0 0 0 146.186 66.633 Q 147.217 65.642 147.223 63.863 A 6.195 6.195 0 0 0 147.223 63.844 Z" id="back_labelLayer" stroke="#777777" fill="#777777" style="stroke:#777777;fill:#777777" vector-effect="non-scaling-stroke"/><path d="M 306 0 L 306 18.414 L 303 18.414 L 303 46.138 L 306 46.138 L 306 73.862 L 303 73.862 L 303 101.586 L 306 101.586 L 306 120 L 334.138 120 L 334.138 117 L 361.862 117 L 361.862 120 L 389.586 120 L 390 120 L 390 101.586 L 393 101.586 L 393 73.862 L 390 73.862 L 390 46.138 L 393 46.138 L 393 18.414 L 390 18.414 L 390 0 L 306 0 Z" id="right_outsideCutPath" stroke="#FF0000" stroke-width="0.1" style="stroke:#FF0000;stroke-width:0.1" vector-effect="non-scaling-stroke"/><path d="M 359.193 64.676 L 357.734 64.676 L 357.734 58.444 Q 357.734 57.267 357.198 56.686 Q 356.764 56.217 355.932 56.127 A 3.868 3.868 0 0 0 355.519 56.106 A 4.415 4.415 0 0 0 354.694 56.178 Q 353.792 56.35 353.3 56.933 Q 352.661 57.688 352.606 59.325 A 9.416 9.416 0 0 0 352.601 59.64 L 352.601 64.676 L 351.142 64.676 L 351.142 51 L 352.601 51 L 352.601 55.14 A 13.125 13.125 0 0 1 352.592 55.644 Q 352.576 56.064 352.531 56.379 L 352.619 56.379 Q 353.049 55.685 353.845 55.285 A 3.745 3.745 0 0 1 355.074 54.92 A 4.735 4.735 0 0 1 355.66 54.885 A 5.919 5.919 0 0 1 356.654 54.963 Q 357.183 55.053 357.602 55.248 A 2.63 2.63 0 0 1 358.31 55.724 A 2.54 2.54 0 0 1 358.936 56.708 Q 359.087 57.117 359.149 57.625 A 6.309 6.309 0 0 1 359.193 58.392 L 359.193 64.676 Z M 345.833 55.043 L 349.165 55.043 L 349.165 55.966 L 347.38 56.177 Q 347.626 56.484 347.82 56.981 A 2.807 2.807 0 0 1 347.986 57.651 A 3.605 3.605 0 0 1 348.013 58.102 A 3.345 3.345 0 0 1 347.86 59.138 A 2.705 2.705 0 0 1 347.046 60.36 A 3.236 3.236 0 0 1 345.773 61.031 Q 345.157 61.204 344.392 61.204 Q 343.961 61.204 343.583 61.134 A 2.596 2.596 0 0 0 343.165 61.404 Q 342.949 61.579 342.823 61.779 A 1.098 1.098 0 0 0 342.652 62.373 A 0.756 0.756 0 0 0 342.69 62.62 Q 342.764 62.833 342.977 62.957 A 1.023 1.023 0 0 0 343.204 63.051 Q 343.531 63.146 344.093 63.146 L 345.798 63.146 Q 347.363 63.146 348.202 63.806 A 2.134 2.134 0 0 1 348.995 65.165 A 3.206 3.206 0 0 1 349.042 65.722 Q 349.042 67.29 347.808 68.128 A 3.469 3.469 0 0 1 347.758 68.161 A 4.375 4.375 0 0 1 346.63 68.672 Q 346.074 68.841 345.396 68.923 A 11.564 11.564 0 0 1 344.014 69 Q 342.774 69 341.907 68.697 A 3.391 3.391 0 0 1 341.101 68.297 A 2.325 2.325 0 0 1 340.351 67.483 Q 340.111 67.038 340.081 66.474 A 3.081 3.081 0 0 1 340.077 66.31 Q 340.077 65.432 340.639 64.79 A 2.548 2.548 0 0 1 341.514 64.152 A 3.611 3.611 0 0 1 342.221 63.92 Q 341.852 63.753 341.602 63.401 A 1.353 1.353 0 0 1 341.353 62.67 A 1.675 1.675 0 0 1 341.351 62.584 A 1.668 1.668 0 0 1 341.435 62.047 A 1.479 1.479 0 0 1 341.632 61.661 A 2.088 2.088 0 0 1 341.908 61.35 Q 342.055 61.213 342.243 61.078 A 4.583 4.583 0 0 1 342.52 60.896 A 2.558 2.558 0 0 1 341.409 60.007 A 3.17 3.17 0 0 1 341.303 59.851 A 3.016 3.016 0 0 1 340.84 58.397 A 3.681 3.681 0 0 1 340.833 58.163 Q 340.833 56.581 341.782 55.724 A 3.098 3.098 0 0 1 342.971 55.068 Q 343.443 54.924 344.012 54.883 A 6.444 6.444 0 0 1 344.471 54.867 A 5.592 5.592 0 0 1 345.211 54.914 A 4.259 4.259 0 0 1 345.833 55.043 Z M 366.62 63.472 L 366.62 64.588 Q 366.405 64.691 366.008 64.762 A 5.454 5.454 0 0 1 365.921 64.777 A 6.324 6.324 0 0 1 365.509 64.83 Q 365.286 64.852 365.09 64.852 Q 362.295 64.852 362.295 61.907 L 362.295 56.177 L 360.916 56.177 L 360.916 55.474 L 362.295 54.867 L 362.911 52.81 L 363.754 52.81 L 363.754 55.043 L 366.549 55.043 L 366.549 56.177 L 363.754 56.177 L 363.754 61.846 Q 363.754 62.457 363.958 62.869 A 1.415 1.415 0 0 0 364.167 63.182 A 1.355 1.355 0 0 0 365.001 63.625 A 1.95 1.95 0 0 0 365.301 63.647 Q 365.688 63.647 366.048 63.59 A 7.892 7.892 0 0 0 366.259 63.554 Q 366.46 63.517 366.6 63.477 A 2.189 2.189 0 0 0 366.62 63.472 Z M 334.926 54.973 L 334.724 56.326 Q 334.226 56.216 333.826 56.198 A 3.422 3.422 0 0 0 333.669 56.194 A 2.528 2.528 0 0 0 331.802 57.001 A 3.459 3.459 0 0 0 331.67 57.144 A 3.332 3.332 0 0 0 330.866 59.014 A 4.428 4.428 0 0 0 330.839 59.508 L 330.839 64.676 L 329.38 64.676 L 329.38 55.043 L 330.584 55.043 L 330.751 56.827 L 330.822 56.827 A 4.927 4.927 0 0 1 331.373 56.04 A 3.764 3.764 0 0 1 332.114 55.377 Q 332.87 54.867 333.775 54.867 A 6.698 6.698 0 0 1 334.375 54.893 A 4.889 4.889 0 0 1 334.926 54.973 Z M 338.187 55.043 L 338.187 64.676 L 336.728 64.676 L 336.728 55.043 L 338.187 55.043 Z M 345.333 64.456 L 343.583 64.456 A 3.354 3.354 0 0 0 342.979 64.507 Q 342.636 64.57 342.365 64.711 A 1.709 1.709 0 0 0 342.037 64.931 A 1.537 1.537 0 0 0 341.532 65.802 A 2.335 2.335 0 0 0 341.483 66.293 A 1.465 1.465 0 0 0 341.58 66.836 Q 341.735 67.23 342.142 67.479 Q 342.801 67.884 344.032 67.884 Q 345.673 67.884 346.553 67.445 A 2.423 2.423 0 0 0 346.752 67.334 A 2.128 2.128 0 0 0 347.246 66.921 A 1.595 1.595 0 0 0 347.635 65.845 A 1.974 1.974 0 0 0 347.599 65.453 Q 347.553 65.227 347.45 65.059 A 0.92 0.92 0 0 0 347.152 64.759 A 1.384 1.384 0 0 0 346.824 64.616 Q 346.474 64.509 345.921 64.473 A 9.283 9.283 0 0 0 345.333 64.456 Z M 342.274 58.128 A 2.848 2.848 0 0 0 342.333 58.725 Q 342.457 59.305 342.845 59.657 A 1.886 1.886 0 0 0 343.604 60.069 Q 343.893 60.152 344.238 60.171 A 3.757 3.757 0 0 0 344.436 60.176 Q 346.572 60.176 346.572 58.102 A 3.137 3.137 0 0 0 346.465 57.242 Q 346.09 55.931 344.41 55.931 A 3.061 3.061 0 0 0 343.786 55.99 Q 343.403 56.07 343.112 56.256 A 1.679 1.679 0 0 0 342.828 56.484 A 1.751 1.751 0 0 0 342.404 57.198 Q 342.274 57.6 342.274 58.128 Z M 336.626 52.165 A 1.617 1.617 0 0 0 336.605 52.433 Q 336.605 52.681 336.667 52.865 A 0.753 0.753 0 0 0 336.851 53.166 Q 337.097 53.408 337.466 53.408 Q 337.818 53.408 338.073 53.166 A 0.712 0.712 0 0 0 338.212 52.982 Q 338.275 52.863 338.304 52.709 A 1.51 1.51 0 0 0 338.328 52.433 A 1.669 1.669 0 0 0 338.32 52.275 Q 338.307 52.131 338.267 52.013 A 0.737 0.737 0 0 0 338.073 51.703 Q 337.818 51.466 337.466 51.466 A 1.114 1.114 0 0 0 337.393 51.468 A 0.844 0.844 0 0 0 336.851 51.699 A 0.682 0.682 0 0 0 336.7 51.913 Q 336.649 52.024 336.626 52.165 Z" id="right_labelLayer" stroke="#777777" fill="#777777" style="stroke:#777777;fill:#777777" vector-effect="non-scaling-stroke"/><path d="M 399 156 L 399 184.138 L 396 184.138 L 396 211.862 L 399 211.862 L 399 239.586 L 399 240 L 421.242 240 L 421.242 243 L 448.966 243 L 448.966 240 L 476.69 240 L 476.69 243 L 504.414 243 L 504.414 240 L 532.138 240 L 532.138 243 L 559.862 243 L 559.862 240 L 587.586 240 L 587.586 243 L 615.31 243 L 615.31 240 L 643.034 240 L 643.034 243 L 670.758 243 L 670.758 240 L 693 240 L 693 211.862 L 696 211.862 L 696 184.138 L 693 184.138 L 693 156.414 L 693 156 L 670.758 156 L 670.758 153 L 643.034 153 L 643.034 156 L 615.31 156 L 615.31 153 L 587.586 153 L 587.586 156 L 559.862 156 L 559.862 153 L 532.138 153 L 532.138 156 L 504.414 156 L 504.414 153 L 476.69 153 L 476.69 156 L 448.966 156 L 448.966 153 L 421.242 153 L 421.242 156 L 399 156 Z" id="bottom_outsideCutPath" stroke="#FF0000" stroke-width="0.1" style="stroke:#FF0000;stroke-width:0.1" vector-effect="non-scaling-stroke"/><path d="M 575.61 204.75 L 574.151 204.75 L 574.151 198.483 A 4.304 4.304 0 0 0 574.108 197.85 Q 574.005 197.161 573.659 196.756 A 1.535 1.535 0 0 0 572.945 196.295 Q 572.592 196.18 572.13 196.18 Q 570.768 196.18 570.117 196.963 A 2.411 2.411 0 0 0 569.708 197.703 Q 569.467 198.38 569.467 199.371 L 569.467 204.75 L 568.008 204.75 L 568.008 198.483 A 4.304 4.304 0 0 0 567.964 197.85 Q 567.862 197.161 567.516 196.756 Q 567.023 196.18 565.977 196.18 Q 565.021 196.18 564.421 196.581 A 1.912 1.912 0 0 0 563.969 197.002 Q 563.392 197.747 563.338 199.354 A 10.158 10.158 0 0 0 563.332 199.696 L 563.332 204.75 L 561.873 204.75 L 561.873 195.117 L 563.06 195.117 L 563.297 196.435 L 563.367 196.435 A 2.867 2.867 0 0 1 564.532 195.337 A 3.464 3.464 0 0 1 565.9 194.953 A 4.184 4.184 0 0 1 566.215 194.941 A 4.777 4.777 0 0 1 567.29 195.053 Q 568.655 195.369 569.168 196.576 L 569.238 196.576 A 3.046 3.046 0 0 1 570.386 195.437 A 3.66 3.66 0 0 1 570.486 195.381 A 3.693 3.693 0 0 1 571.841 194.969 A 4.604 4.604 0 0 1 572.35 194.941 A 5.072 5.072 0 0 1 573.269 195.019 Q 573.781 195.114 574.18 195.323 A 2.404 2.404 0 0 1 574.797 195.781 Q 575.61 196.62 575.61 198.466 L 575.61 204.75 Z M 517.849 203.511 L 517.743 203.511 L 517.436 204.75 L 516.39 204.75 L 516.39 191.074 L 517.849 191.074 L 517.849 194.396 A 30.419 30.419 0 0 1 517.832 195.424 Q 517.816 195.91 517.783 196.343 A 18.252 18.252 0 0 1 517.778 196.4 L 517.849 196.4 Q 518.868 194.959 520.872 194.959 A 4.459 4.459 0 0 1 522.127 195.126 A 3.338 3.338 0 0 1 523.821 196.255 Q 524.871 197.552 524.871 199.925 Q 524.871 202.298 523.812 203.612 A 3.454 3.454 0 0 1 521.357 204.902 A 4.948 4.948 0 0 1 520.872 204.926 A 4.425 4.425 0 0 1 519.76 204.79 A 3.851 3.851 0 0 1 519.154 204.578 Q 518.376 204.231 517.849 203.511 Z M 542.722 203.546 L 542.722 204.662 Q 542.507 204.765 542.11 204.836 A 5.454 5.454 0 0 1 542.023 204.851 A 6.324 6.324 0 0 1 541.611 204.904 Q 541.388 204.926 541.192 204.926 Q 538.397 204.926 538.397 201.981 L 538.397 196.251 L 537.018 196.251 L 537.018 195.548 L 538.397 194.941 L 539.013 192.885 L 539.856 192.885 L 539.856 195.117 L 542.651 195.117 L 542.651 196.251 L 539.856 196.251 L 539.856 201.92 Q 539.856 202.531 540.06 202.943 A 1.415 1.415 0 0 0 540.269 203.256 A 1.355 1.355 0 0 0 541.103 203.699 A 1.95 1.95 0 0 0 541.403 203.721 Q 541.79 203.721 542.15 203.664 A 7.892 7.892 0 0 0 542.361 203.628 Q 542.562 203.591 542.702 203.551 A 2.189 2.189 0 0 0 542.722 203.546 Z M 549.076 203.546 L 549.076 204.662 Q 548.862 204.765 548.465 204.836 A 5.454 5.454 0 0 1 548.377 204.851 A 6.324 6.324 0 0 1 547.965 204.904 Q 547.743 204.926 547.547 204.926 Q 544.752 204.926 544.752 201.981 L 544.752 196.251 L 543.372 196.251 L 543.372 195.548 L 544.752 194.941 L 545.367 192.885 L 546.211 192.885 L 546.211 195.117 L 549.006 195.117 L 549.006 196.251 L 546.211 196.251 L 546.211 201.92 Q 546.211 202.531 546.415 202.943 A 1.415 1.415 0 0 0 546.624 203.256 A 1.355 1.355 0 0 0 547.457 203.699 A 1.95 1.95 0 0 0 547.758 203.721 Q 548.144 203.721 548.505 203.664 A 7.892 7.892 0 0 0 548.715 203.628 Q 548.917 203.591 549.057 203.551 A 2.189 2.189 0 0 0 549.076 203.546 Z M 535.6 201.391 A 7.536 7.536 0 0 0 535.734 199.925 Q 535.734 198.988 535.536 198.21 A 4.543 4.543 0 0 0 534.543 196.286 A 3.819 3.819 0 0 0 532.77 195.142 A 4.903 4.903 0 0 0 531.331 194.941 A 5.667 5.667 0 0 0 530.313 195.029 A 3.859 3.859 0 0 0 528.061 196.255 A 4.031 4.031 0 0 0 527.566 196.942 Q 526.884 198.131 526.884 199.925 A 7.299 7.299 0 0 0 526.975 201.107 A 5.397 5.397 0 0 0 527.429 202.579 A 4.795 4.795 0 0 0 527.535 202.787 A 3.95 3.95 0 0 0 528.976 204.319 Q 529.977 204.926 531.269 204.926 A 5.665 5.665 0 0 0 532.259 204.843 A 3.89 3.89 0 0 0 534.548 203.603 A 4.07 4.07 0 0 0 535.032 202.937 Q 535.428 202.261 535.6 201.391 Z M 559.181 201.391 A 7.536 7.536 0 0 0 559.315 199.925 Q 559.315 198.988 559.117 198.21 A 4.543 4.543 0 0 0 558.124 196.286 A 3.819 3.819 0 0 0 556.351 195.142 A 4.903 4.903 0 0 0 554.912 194.941 A 5.667 5.667 0 0 0 553.894 195.029 A 3.859 3.859 0 0 0 551.643 196.255 A 4.031 4.031 0 0 0 551.147 196.942 Q 550.465 198.131 550.465 199.925 A 7.299 7.299 0 0 0 550.556 201.107 A 5.397 5.397 0 0 0 551.01 202.579 A 4.795 4.795 0 0 0 551.116 202.787 A 3.95 3.95 0 0 0 552.557 204.319 Q 553.559 204.926 554.851 204.926 A 5.665 5.665 0 0 0 555.84 204.843 A 3.89 3.89 0 0 0 558.129 203.603 A 4.07 4.07 0 0 0 558.613 202.937 Q 559.009 202.261 559.181 201.391 Z M 528.395 199.925 Q 528.395 201.77 529.134 202.737 A 2.391 2.391 0 0 0 530.691 203.654 A 3.624 3.624 0 0 0 531.305 203.704 Q 532.737 203.704 533.48 202.741 Q 534.223 201.779 534.223 199.925 A 7.28 7.28 0 0 0 534.154 198.887 Q 533.996 197.797 533.48 197.134 A 2.4 2.4 0 0 0 531.988 196.244 A 3.68 3.68 0 0 0 531.287 196.18 A 3.472 3.472 0 0 0 530.423 196.282 A 2.324 2.324 0 0 0 529.125 197.121 A 3.017 3.017 0 0 0 528.656 198.027 Q 528.518 198.443 528.453 198.953 A 7.71 7.71 0 0 0 528.395 199.925 Z M 551.977 199.925 Q 551.977 201.77 552.715 202.737 A 2.391 2.391 0 0 0 554.272 203.654 A 3.624 3.624 0 0 0 554.886 203.704 Q 556.318 203.704 557.061 202.741 Q 557.804 201.779 557.804 199.925 A 7.28 7.28 0 0 0 557.735 198.887 Q 557.577 197.797 557.061 197.134 A 2.4 2.4 0 0 0 555.569 196.244 A 3.68 3.68 0 0 0 554.868 196.18 A 3.472 3.472 0 0 0 554.004 196.282 A 2.324 2.324 0 0 0 552.706 197.121 A 3.017 3.017 0 0 0 552.237 198.027 Q 552.099 198.443 552.034 198.953 A 7.71 7.71 0 0 0 551.977 199.925 Z M 520.661 196.18 A 4.1 4.1 0 0 0 519.867 196.252 Q 518.976 196.428 518.508 197.037 A 2.498 2.498 0 0 0 518.146 197.726 Q 517.902 198.41 517.858 199.449 A 11.241 11.241 0 0 0 517.849 199.925 A 9.647 9.647 0 0 0 517.896 200.922 Q 518.001 201.928 518.337 202.54 A 2.2 2.2 0 0 0 518.525 202.829 A 2.117 2.117 0 0 0 519.599 203.554 Q 519.958 203.666 520.396 203.695 A 4.691 4.691 0 0 0 520.696 203.704 A 2.908 2.908 0 0 0 521.522 203.593 A 2.098 2.098 0 0 0 522.7 202.724 A 3.349 3.349 0 0 0 523.115 201.828 Q 523.245 201.402 523.306 200.886 A 8.36 8.36 0 0 0 523.359 199.907 A 8.62 8.62 0 0 0 523.307 198.925 Q 523.184 197.85 522.767 197.202 A 2.42 2.42 0 0 0 522.7 197.103 Q 522.041 196.18 520.661 196.18 Z" id="bottom_labelLayer" stroke="#777777" fill="#777777" style="stroke:#777777;fill:#777777" vector-effect="non-scaling-stroke"/></g></svg>