0
SECTION
2
HEADER
9
$INSUNITS
70
4
0
ENDSEC
0
SECTION
2
TABLES
0
TABLE
2
LTYPE
0
LTYPE
72
65
70
64
2
CONTINUOUS
3
______
73
0
40
0
0
ENDTAB
0
TABLE
2
LAYER
0
ENDTAB
0
ENDSEC
0
SECTION
2
ENTITIES
0
LINE
8
front_outsideCutPath
10
0
20
123
11
0
21
104.58615
0
LINE
8
front_outsideCutPath
10
0
20
104.58615
11
3
21
104.58615
0
LINE
8
front_outsideCutPath
10
3
20
104.58615
11
3
21
76.86205
0
LINE
8
front_outsideCutPath
10
3
20
76.86205
11
0
21
76.86205
0
LINE
8
front_outsideCutPath
10
0
20
76.86205
11
0
21
49.13795
0
LINE
8
front_outsideCutPath
10
0
20
49.13795
11
3
21
49.13795
0
LINE
8
front_outsideCutPath
10
3
20
49.13795
11
3
21
21.41385
0
LINE
8
front_outsideCutPath
10
3
20
21.41385
11
0
21
21.41385
0
LINE
8
front_outsideCutPath
10
0
20
21.41385
11
0
21
3
0
LINE
8
front_outsideCutPath
10
0
20
3
11
25.24155
21
3
0
LINE
8
front_outsideCutPath
10
25.24155
20
3
11
25.24155
21
6
0
LINE
8
front_outsideCutPath
10
25.24155
20
6
11
52.96565
21
6
0
LINE
8
front_outsideCutPath
10
52.96565
20
6
11
52.96565
21
3
0
LINE
8
front_outsideCutPath
10
52.96565
20
3
11
80.68975
21
3
0
LINE
8
front_outsideCutPath
10
80.68975
20
3
11
80.68975
21
6
0
LINE
8
front_outsideCutPath
10
80.68975
20
6
11
108.41385
21
6
0
LINE
8
front_outsideCutPath
10
108.41385
20
6
11
108.41385
21
3
0
LINE
8
front_outsideCutPath
10
108.41385
20
3
11
136.13795
21
3
0
LINE
8
front_outsideCutPath
10
136.13795
20
3
11
136.13795
21
6
0
LINE
8
front_outsideCutPath
10
136.13795
20
6
11
163.86205
21
6
0
LINE
8
front_outsideCutPath
10
163.86205
20
6
11
163.86205
21
3
0
LINE
8
front_outsideCutPath
10
163.86205
20
3
11
191.58615
21
3
0
LINE
8
front_outsideCutPath
10
191.58615
20
3
11
191.58615
21
6
0
LINE
8
front_outsideCutPath
10
191.58615
20
6
11
219.31025
21
6
0
LINE
8
front_outsideCutPath
10
219.31025
20
6
11
219.31025
21
3
0
LINE
8
front_outsideCutPath
10
219.31025
20
3
11
247.03435
21
3
0
LINE
8
front_outsideCutPath
10
247.03435
20
3
11
247.03435
21
6
0
LINE
8
front_outsideCutPath
10
247.03435
20
6
11
274.75845
21
6
0
LINE
8
front_outsideCutPath
10
274.75845
20
6
11
274.75845
21
3
0
LINE
8
front_outsideCutPath
10
274.75845
20
3
11
300
21
3
0
LINE
8
front_outsideCutPath
10
300
20
3
11
300
21
21.41385
0
LINE
8
front_outsideCutPath
10
300
20
21.41385
11
297
21
21.41385
0
LINE
8
front_outsideCutPath
10
297
20
21.41385
11
297
21
49.13795
0
LINE
8
front_outsideCutPath
10
297
20
49.13795
11
300
21
49.13795
0
LINE
8
front_outsideCutPath
10
300
20
49.13795
11
300
21
76.86205
0
LINE
8
front_outsideCutPath
10
300
20
76.86205
11
297
21
76.86205
0
LINE
8
front_outsideCutPath
10
297
20
76.86205
11
297
21
104.58615
0
LINE
8
front_outsideCutPath
10
297
20
104.58615
11
300
21
104.58615
0
LINE
8
front_outsideCutPath
10
300
20
104.58615
11
300
21
123
0
LINE
8
front_outsideCutPath
10
300
20
123
11
0
21
123
0
LINE
8
front_labelLayer
10
130.1191406
20
66.779551
11
130.1191406
21
65.2678323
0
LINE
8
front_labelLayer
10
130.1191406
20
65.2678323
11
126.8496094
21
65.2678323
0
LINE
8
front_labelLayer
10
126.8496094
20
65.2678323
11
126.8496094
21
53.935801
0
LINE
8
front_labelLayer
10
126.8496094
20
53.935801
11
124.9042969
21
53.935801
0
LINE
8
front_labelLayer
10
124.9042969
20
53.935801
11
124.9042969
21
65.2678323
0
LINE
8
front_labelLayer
10
124.9042969
20
65.2678323
11
122.6074219
21
65.2678323
0
LINE
8
front_labelLayer
10
122.6074219
20
65.2678323
11
122.6074219
21
66.1467385
0
LINE
8
front_labelLayer
10
122.6074219
20
66.1467385
11
124.9042969
21
66.8498635
0
LINE
8
front_labelLayer
10
124.9042969
20
66.8498635
11
124.9042969
21
67.5647073
0
LINE
8
front_labelLayer
10
131.4316406
20
71.888926
11
130.9277344
21
70.3303323
0
LINE
8
front_labelLayer
10
126.8496094
20
67.6115823
11
126.8496094
21
66.779551
0
LINE
8
front_labelLayer
10
126.8496094
20
66.779551
11
130.1191406
21
66.779551
0
ARC
8
front_labelLayer
10
132.7879639
20
67.6553428
40
7.884188
50
167.5775948
51
180.6586785
0
ARC
8
front_labelLayer
10
129.0805621
20
68.5196945
40
4.0779123
50
141.7433822
51
168.232208
0
ARC
8
front_labelLayer
10
128.4769219
20
68.8347492
40
3.4111711
50
98.255151
51
139.6203295
0
ARC
8
front_labelLayer
10
129.006927
20
66.3863271
40
5.9128533
50
89.6696779
51
99.9314286
0
ARC
8
front_labelLayer
10
129.008405
20
66.0347912
40
6.264376
50
81.5641045
51
89.7017324
0
ARC
8
front_labelLayer
10
128.5680049
20
62.962339
40
9.3682062
50
75.9739961
51
81.6564686
0
ARC
8
front_labelLayer
10
127.8122821
20
59.8277554
40
12.5925214
50
73.2963655
51
76.0946302
0
ARC
8
front_labelLayer
10
128.0025872
20
61.3482853
40
9.4463566
50
71.9613325
51
76.5918389
0
ARC
8
front_labelLayer
10
128.7354404
20
64.4571146
40
6.2523317
50
76.5183649
51
83.0216906
0
ARC
8
front_labelLayer
10
128.9907206
20
66.5100229
40
4.1836179
50
83.0761153
51
89.79267
0
ARC
8
front_labelLayer
10
128.9823207
20
68.0702558
40
2.6234633
50
89.4859136
51
103.4197501
0
ARC
8
front_labelLayer
10
128.745797
20
68.9789544
40
1.6847918
50
102.7677441
51
144.3380244
0
ARC
8
front_labelLayer
10
129.2222985
20
68.6723701
40
2.2508577
50
145.0688775
51
162.1801624
0
ARC
8
front_labelLayer
10
130.8560478
20
68.1226961
40
3.9745079
50
161.8437735
51
171.7847009
0
ARC
8
front_labelLayer
10
133.5206795
20
67.722474
40
6.6690023
50
171.6527609
51
178.4383731
0
ARC
8
front_labelLayer
10
136.0340631
20
67.6152963
40
9.1844545
50
178.1973059
51
180.0231694
0
LINE
8
front_labelLayer
10
139.8574219
20
66.873301
11
139.5878906
21
65.0686135
0
LINE
8
front_labelLayer
10
134.4082031
20
60.826426
11
134.4082031
21
53.935801
0
LINE
8
front_labelLayer
10
134.4082031
20
53.935801
11
132.4628906
21
53.935801
0
LINE
8
front_labelLayer
10
132.4628906
20
53.935801
11
132.4628906
21
66.779551
0
LINE
8
front_labelLayer
10
132.4628906
20
66.779551
11
134.0683594
21
66.779551
0
LINE
8
front_labelLayer
10
134.0683594
20
66.779551
11
134.2910156
21
64.4006448
0
LINE
8
front_labelLayer
10
134.2910156
20
64.4006448
11
134.3847656
21
64.4006448
0
ARC
8
front_labelLayer
10
138.3422306
20
58.0832722
40
8.9306762
50
84.9923067
51
90.1280878
0
ARC
8
front_labelLayer
10
138.5566973
20
60.4861902
40
6.5182106
50
78.4892141
51
85.0265752
0
ARC
8
front_labelLayer
10
137.7242652
20
56.7000992
40
8.5735134
50
77.4453873
51
81.6360416
0
ARC
8
front_labelLayer
10
138.0977982
20
59.2748378
40
5.9718273
50
81.5884234
51
87.1916388
0
ARC
8
front_labelLayer
10
138.1789361
20
60.681793
40
4.5626024
50
87.3436609
51
89.966037
0
ARC
8
front_labelLayer
10
138.1600825
20
61.8738121
40
3.3706516
50
89.6335429
51
137.0880721
0
ARC
8
front_labelLayer
10
138.9873171
20
60.9435685
40
4.6114089
50
135.6209225
51
138.837725
0
ARC
8
front_labelLayer
10
138.8660883
20
61.0618982
40
4.4422678
50
138.9575762
51
174.5422245
0
ARC
8
front_labelLayer
10
140.3128377
20
60.8355233
40
5.9046416
50
173.6907564
51
180.0882758
0
ARC
8
front_labelLayer
10
140.1082811
20
61.1760434
40
6.5693747
50
139.4139236
51
150.6032966
0
ARC
8
front_labelLayer
10
138.9304011
20
62.1853624
40
5.0182054
50
124.2321636
51
139.4160933
0
ARC
8
front_labelLayer
10
138.3005842
20
63.1360654
40
3.8779211
50
89.6796578
51
124.4405652
0
ARC
8
front_labelLayer
10
143.2976064
20
60.3016529
40
10.048325
50
349.1761848
51
0.3862689
0
ARC
8
front_labelLayer
10
146.6806304
20
59.6272398
40
6.5988955
50
330.2507088
51
349.4116414
0
ARC
8
front_labelLayer
10
147.7217556
20
59.0861052
40
5.4266731
50
318.1439818
51
329.7566157
0
ARC
8
front_labelLayer
10
147.90967
20
58.9355107
40
5.186241
50
278.8959142
51
317.9979157
0
ARC
8
front_labelLayer
10
147.4255001
20
61.2552017
40
7.5538476
50
269.7502864
51
279.8033342
0
ARC
8
front_labelLayer
10
147.3469767
20
59.9482024
40
6.2469429
50
253.5436952
51
270.4182511
0
ARC
8
front_labelLayer
10
147.1390282
20
59.1438064
40
5.4166642
50
238.8115546
51
253.2428384
0
ARC
8
front_labelLayer
10
147.0719167
20
59.0088451
40
5.2664697
50
207.7947012
51
238.6757963
0
ARC
8
front_labelLayer
10
148.0349269
20
59.5986458
40
6.3938119
50
205.6560415
51
208.4461506
0
ARC
8
front_labelLayer
10
148.776686
20
59.9077089
40
7.1963807
50
188.9102519
51
205.3171454
0
ARC
8
front_labelLayer
10
151.2764493
20
60.3310878
40
9.7316027
50
179.774463
51
189.0932878
0
ARC
8
front_labelLayer
10
151.6452118
20
60.4378074
40
10.1005216
50
169.2442975
51
180.3880772
0
ARC
8
front_labelLayer
10
148.2151536
20
61.1158054
40
6.604245
50
150.7111509
51
169.4695445
0
ARC
8
front_labelLayer
10
147.1201601
20
61.6781269
40
5.3743262
50
138.1759262
51
150.2287565
0
ARC
8
front_labelLayer
10
146.9380309
20
61.8178901
40
5.1454329
50
99.1759396
51
137.9832734
0
ARC
8
front_labelLayer
10
147.4393519
20
59.4586107
40
7.5553974
50
89.7326269
51
100.0759727
0
ARC
8
front_labelLayer
10
147.5395504
20
60.4775091
40
6.5367395
50
73.5222687
51
90.5692303
0
ARC
8
front_labelLayer
10
147.9228911
20
61.8702854
40
5.0925067
50
41.1445685
51
73.2133837
0
ARC
8
front_labelLayer
10
147.1911245
20
61.2413418
40
6.0573904
50
13.5014349
51
41.0703455
0
ARC
8
front_labelLayer
10
144.3639549
20
60.5015086
40
8.9793531
50
1.1277128
51
13.8800049
0
ARC
8
front_labelLayer
10
141.9281599
20
60.3710015
40
11.4175433
50
359.9919372
51
1.5419349
0
ARC
8
front_labelLayer
10
153.4114534
20
60.3188417
40
9.8510362
50
179.705971
51
187.9160766
0
ARC
8
front_labelLayer
10
149.798397
20
59.7998305
40
6.2009516
50
187.7639294
51
200.0976817
0
ARC
8
front_labelLayer
10
147.807978
20
59.0705384
40
4.0811324
50
200.0845823
51
216.9131551
0
ARC
8
front_labelLayer
10
147.0811489
20
58.5515488
40
3.1883642
50
217.3009547
51
261.7099106
0
ARC
8
front_labelLayer
10
147.4185669
20
60.1616731
40
4.8313858
50
260.5033213
51
270.2476922
0
ARC
8
front_labelLayer
10
147.482972
20
59.8485838
40
4.5184611
50
269.4481552
51
284.7255622
0
ARC
8
front_labelLayer
10
147.8406711
20
58.5219911
40
3.1445297
50
284.5662336
51
322.6333806
0
ARC
8
front_labelLayer
10
147.0043502
20
59.1261955
40
4.1760003
50
323.0089257
51
342.6390464
0
ARC
8
front_labelLayer
10
144.6123008
20
59.9079865
40
6.6924346
50
342.3615655
51
353.7537662
0
ARC
8
front_labelLayer
10
141.0832114
20
60.3333711
40
10.2469298
50
353.5363176
51
0.2014268
0
ARC
8
front_labelLayer
10
141.6239303
20
60.4189351
40
9.7062742
50
359.7075639
51
7.8972796
0
ARC
8
front_labelLayer
10
145.1786305
20
60.9285364
40
6.1152909
50
7.7439865
51
20.0690117
0
ARC
8
front_labelLayer
10
147.1594637
20
61.6554278
40
4.0053009
50
20.0256933
51
37.4350686
0
ARC
8
front_labelLayer
10
147.8166804
20
62.1217802
40
3.2000982
50
37.9577645
51
80.400624
0
ARC
8
front_labelLayer
10
147.4432017
20
60.4553487
40
4.9063088
50
79.345361
51
90.3174798
0
ARC
8
front_labelLayer
10
147.3740474
20
60.732157
40
4.6296155
50
89.4805969
51
103.8805122
0
ARC
8
front_labelLayer
10
146.9850391
20
62.213495
40
3.0982933
50
103.4685158
51
142.3118982
0
ARC
8
front_labelLayer
10
147.7413026
20
61.6816365
40
4.022135
50
142.90258
51
162.3749602
0
ARC
8
front_labelLayer
10
150.1242865
20
60.887514
40
6.5338029
50
162.0653208
51
173.1674858
0
ARC
8
front_labelLayer
10
153.8399688
20
60.4136004
40
10.2795168
50
173.0086176
51
180.2463933
0
LINE
8
front_labelLayer
10
167.4902344
20
53.935801
11
165.5449219
21
53.935801
0
LINE
8
front_labelLayer
10
165.5449219
20
53.935801
11
165.5449219
21
62.2443948
0
LINE
8
front_labelLayer
10
158.7011719
20
60.6740823
11
158.7011719
21
53.935801
0
LINE
8
front_labelLayer
10
158.7011719
20
53.935801
11
156.7558594
21
53.935801
0
LINE
8
front_labelLayer
10
156.7558594
20
53.935801
11
156.7558594
21
66.779551
0
LINE
8
front_labelLayer
10
156.7558594
20
66.779551
11
158.3378906
21
66.779551
0
LINE
8
front_labelLayer
10
158.3378906
20
66.779551
11
158.6542969
21
65.0217385
0
LINE
8
front_labelLayer
10
158.6542969
20
65.0217385
11
158.7480469
21
65.0217385
0
LINE
8
front_labelLayer
10
167.4902344
20
62.3147073
11
167.4902344
21
53.935801
0
ARC
8
front_labelLayer
10
160.0461243
20
62.2759318
40
5.498888
50
359.6713974
51
8.6877446
0
ARC
8
front_labelLayer
10
162.0841557
20
62.5991527
40
3.4354381
50
8.4931304
51
22.6579834
0
ARC
8
front_labelLayer
10
163.1196258
20
63.0294616
40
2.3141176
50
22.7024411
51
42.341961
0
ARC
8
front_labelLayer
10
163.2360172
20
63.0818172
40
2.1931832
50
43.3791031
51
71.5386002
0
ARC
8
front_labelLayer
10
162.8007693
20
61.8656194
40
3.4847306
50
71.0828127
51
84.3690969
0
ARC
8
front_labelLayer
10
162.6053957
20
60.2044755
40
5.1571246
50
84.0197962
51
90.1510837
0
ARC
8
front_labelLayer
10
162.5500058
20
59.4741689
40
5.8875617
50
89.5932996
51
100.3717866
0
ARC
8
front_labelLayer
10
162.1339379
20
61.6571444
40
3.6653847
50
100.11765
51
118.1602609
0
ARC
8
front_labelLayer
10
161.7146428
20
62.4793456
40
2.7426864
50
118.5439281
51
139.1926809
0
ARC
8
front_labelLayer
10
162.0802469
20
62.2340215
40
3.1801855
50
140.1519217
51
160.3146348
0
ARC
8
front_labelLayer
10
164.2879665
20
61.4071021
40
5.5375403
50
159.9534206
51
171.3801261
0
ARC
8
front_labelLayer
10
167.8943338
20
60.8273882
40
9.1901161
50
171.1765723
51
178.3217742
0
ARC
8
front_labelLayer
10
171.1637023
20
60.6792219
40
12.4625315
50
178.0810754
51
180.0236292
0
ARC
8
front_labelLayer
10
162.0758001
20
62.9141626
40
3.9390123
50
116.9442908
51
147.6525703
0
ARC
8
front_labelLayer
10
162.4856124
20
62.2287862
40
4.7360017
50
115.8071098
51
117.6068573
0
ARC
8
front_labelLayer
10
162.6954071
20
61.7396818
40
5.2677127
50
94.322676
51
115.5454416
0
ARC
8
front_labelLayer
10
162.8214873
20
60.6442778
40
6.3696498
50
89.9578613
51
94.7108837
0
ARC
8
front_labelLayer
10
162.8736007
20
59.3336483
40
7.6804242
50
80.5585281
51
90.3538205
0
ARC
8
front_labelLayer
10
163.3535798
20
62.1138642
40
4.8591655
50
65.109428
51
80.7638198
0
ARC
8
front_labelLayer
10
163.9146538
20
63.3566273
40
3.4957185
50
46.5584535
51
64.87825
0
ARC
8
front_labelLayer
10
163.9595572
20
63.4860809
40
3.371321
50
19.3848791
51
45.5997037
0
ARC
8
front_labelLayer
10
162.0091361
20
62.7542492
40
5.4542466
50
6.9633763
51
19.8363358
0
ARC
8
front_labelLayer
10
159.0009918
20
62.3498006
40
8.4893151
50
359.7631485
51
7.211566
0
LINE
8
front_labelLayer
10
177.3925781
20
55.5412698
11
177.3925781
21
54.0529885
0
LINE
8
front_labelLayer
10
171.6269531
20
57.6272073
11
171.6269531
21
65.2678323
0
LINE
8
front_labelLayer
10
171.6269531
20
65.2678323
11
169.7871094
21
65.2678323
0
LINE
8
front_labelLayer
10
169.7871094
20
65.2678323
11
169.7871094
21
66.2053323
0
LINE
8
front_labelLayer
10
169.7871094
20
66.2053323
11
171.6269531
21
67.013926
0
LINE
8
front_labelLayer
10
171.6269531
20
67.013926
11
172.4472656
21
69.7561135
0
LINE
8
front_labelLayer
10
172.4472656
20
69.7561135
11
173.5722656
21
69.7561135
0
LINE
8
front_labelLayer
10
173.5722656
20
69.7561135
11
173.5722656
21
66.779551
0
LINE
8
front_labelLayer
10
173.5722656
20
66.779551
11
177.2988281
21
66.779551
0
LINE
8
front_labelLayer
10
177.2988281
20
66.779551
11
177.2988281
21
65.2678323
0
LINE
8
front_labelLayer
10
177.2988281
20
65.2678323
11
173.5722656
21
65.2678323
0
LINE
8
front_labelLayer
10
173.5722656
20
65.2678323
11
173.5722656
21
57.7092385
0
ARC
8
front_labelLayer
10
175.6481062
20
61.6955538
40
6.3886729
50
269.8803567
51
278.3028336
0
ARC
8
front_labelLayer
10
175.7089876
20
61.1981686
40
5.8877209
50
278.4155406
51
279.0081712
0
ARC
8
front_labelLayer
10
174.9920162
20
65.7784426
40
10.5237659
50
278.9590101
51
280.5103943
0
ARC
8
front_labelLayer
10
175.6752037
20
62.1126678
40
6.7948739
50
280.4847891
51
282.6267799
0
ARC
8
front_labelLayer
10
176.2743731
20
59.4507118
40
4.0663209
50
282.58766
51
285.5794473
0
ARC
8
front_labelLayer
10
176.5734693
20
58.350401
40
2.9261164
50
285.7245036
51
286.256048
0
ARC
8
front_labelLayer
10
176.5747227
20
55.7827976
40
1.9134071
50
287.9887831
51
295.3048298
0
ARC
8
front_labelLayer
10
176.1132416
20
57.1789714
40
3.3838602
50
283.3068705
51
288.1198548
0
ARC
8
front_labelLayer
10
175.6256649
20
59.2128078
40
5.4753182
50
280.0070318
51
283.3734769
0
ARC
8
front_labelLayer
10
175.2993429
20
60.9838195
40
7.2761039
50
279.186299
51
280.1142077
0
ARC
8
front_labelLayer
10
175.099253
20
62.1218612
40
8.431508
50
275.5260434
51
279.2939448
0
ARC
8
front_labelLayer
10
175.324895
20
59.7650633
40
6.0639347
50
270.8932317
51
275.5483613
0
ARC
8
front_labelLayer
10
175.3532416
20
58.6884502
40
4.9870241
50
270.0031482
51
270.7604232
0
ARC
8
front_labelLayer
10
175.2750169
20
58.7816953
40
5.0808757
50
253.7848016
51
270.8852459
0
ARC
8
front_labelLayer
10
174.673068
20
56.7288186
40
2.9415753
50
190.3817606
51
253.8772428
0
ARC
8
front_labelLayer
10
177.7411859
20
57.5583836
40
6.11462
50
179.3550883
51
192.8477587
0
ARC
8
front_labelLayer
10
177.4894163
20
57.6847403
40
3.9172273
50
179.6416712
51
189.7505711
0
ARC
8
front_labelLayer
10
176.1065473
20
57.4380897
40
2.5125779
50
189.5479422
51
205.7873769
0
ARC
8
front_labelLayer
10
175.5382587
20
57.1760334
40
1.886913
50
206.1294343
51
221.408378
0
ARC
8
front_labelLayer
10
175.4745364
20
57.1276828
40
1.8071497
50
221.5949186
51
262.3505072
0
ARC
8
front_labelLayer
10
175.6260826
20
57.9069915
40
2.6001111
50
261.3266248
51
270.1913377
0
LINE
8
left_outsideCutPath
10
306
20
123
11
306
21
104.58615
0
LINE
8
left_outsideCutPath
10
306
20
104.58615
11
303
21
104.58615
0
LINE
8
left_outsideCutPath
10
303
20
104.58615
11
303
21
76.86205
0
LINE
8
left_outsideCutPath
10
303
20
76.86205
11
306
21
76.86205
0
LINE
8
left_outsideCutPath
10
306
20
76.86205
11
306
21
49.13795
0
LINE
8
left_outsideCutPath
10
306
20
49.13795
11
303
21
49.13795
0
LINE
8
left_outsideCutPath
10
303
20
49.13795
11
303
21
21.41385
0
LINE
8
left_outsideCutPath
10
303
20
21.41385
11
306
21
21.41385
0
LINE
8
left_outsideCutPath
10
306
20
21.41385
11
306
21
3
0
LINE
8
left_outsideCutPath
10
306
20
3
11
334.13795
21
3
0
LINE
8
left_outsideCutPath
10
334.13795
20
3
11
334.13795
21
6
0
LINE
8
left_outsideCutPath
10
334.13795
20
6
11
361.86205
21
6
0
LINE
8
left_outsideCutPath
10
361.86205
20
6
11
361.86205
21
3
0
LINE
8
left_outsideCutPath
10
361.86205
20
3
11
389.58615
21
3
0
LINE
8
left_outsideCutPath
10
389.58615
20
3
11
390
21
3
0
LINE
8
left_outsideCutPath
10
390
20
3
11
390
21
21.41385
0
LINE
8
left_outsideCutPath
10
390
20
21.41385
11
393
21
21.41385
0
LINE
8
left_outsideCutPath
10
393
20
21.41385
11
393
21
49.13795
0
LINE
8
left_outsideCutPath
10
393
20
49.13795
11
390
21
49.13795
0
LINE
8
left_outsideCutPath
10
390
20
49.13795
11
390
21
76.86205
0
LINE
8
left_outsideCutPath
10
390
20
76.86205
11
393
21
76.86205
0
LINE
8
left_outsideCutPath
10
393
20
76.86205
11
393
21
104.58615
0
LINE
8
left_outsideCutPath
10
393
20
104.58615
11
390
21
104.58615
0
LINE
8
left_outsideCutPath
10
390
20
104.58615
11
390
21
123
0
LINE
8
left_outsideCutPath
10
390
20
123
11
306
21
123
0
LINE
8
left_labelLayer
10
336.8686523
20
69.877632
11
336.8686523
21
56.2018507
0
LINE
8
left_labelLayer
10
336.8686523
20
56.2018507
11
335.4096679
21
56.2018507
0
LINE
8
left_labelLayer
10
335.4096679
20
56.2018507
11
335.4096679
21
69.877632
0
LINE
8
left_labelLayer
10
335.4096679
20
69.877632
11
336.8686523
21
69.877632
0
LINE
8
left_labelLayer
10
347.5737304
20
61.6774367
11
347.5737304
21
60.7545851
0
LINE
8
left_labelLayer
10
347.5737304
20
60.7545851
11
340.9379883
21
60.7545851
0
LINE
8
left_labelLayer
10
347.1606445
20
57.9508742
11
347.1606445
21
56.6500929
0
LINE
8
left_labelLayer
10
340.9731445
20
61.9411086
11
346.0092773
21
61.9411086
0
ARC
8
left_labelLayer
10
343.9837661
20
61.6954101
40
5.6695436
50
256.0087811
51
270.4848073
0
ARC
8
left_labelLayer
10
343.5709115
20
60.0926267
40
4.0145146
50
223.5465771
51
256.1956934
0
ARC
8
left_labelLayer
10
343.7986633
20
60.2581599
40
4.2937945
50
194.0877277
51
223.053818
0
ARC
8
left_labelLayer
10
345.8854981
20
60.8288324
40
6.4569325
50
181.3574542
51
194.4919942
0
ARC
8
left_labelLayer
10
347.7602769
20
60.9375137
40
8.3340075
50
179.9887132
51
181.7990878
0
ARC
8
left_labelLayer
10
347.087203
20
60.9905453
40
7.6611059
50
168.9539363
51
180.3843371
0
ARC
8
left_labelLayer
10
344.5851105
20
61.5000133
40
5.107797
50
149.4070918
51
169.185384
0
ARC
8
left_labelLayer
10
343.887961
20
61.8683624
40
4.3203862
50
140.1055636
51
148.906762
0
ARC
8
left_labelLayer
10
343.4597051
20
62.2632017
40
3.7386833
50
92.4762632
51
140.5386368
0
ARC
8
left_labelLayer
10
343.6505486
20
60.8529063
40
5.1575392
50
89.9637842
51
93.9176338
0
ARC
8
left_labelLayer
10
343.6960892
20
61.5656781
40
4.4449675
50
74.212593
51
90.5450076
0
ARC
8
left_labelLayer
10
343.9744913
20
62.591433
40
3.3821803
50
41.2064615
51
74.0232696
0
ARC
8
left_labelLayer
10
343.4472521
20
62.1351459
40
4.079436
50
11.5994191
51
41.1496031
0
ARC
8
left_labelLayer
10
341.6356867
20
61.7173617
40
5.938178
50
359.6147716
51
12.0336545
0
ARC
8
left_labelLayer
10
346.792665
20
60.8715721
40
5.8558454
50
181.1447203
51
190.8006882
0
ARC
8
left_labelLayer
10
344.7267747
20
60.4641225
40
3.750222
50
190.6005761
51
206.0275243
0
ARC
8
left_labelLayer
10
343.8127589
20
60.032016
40
2.7393229
50
206.2950228
51
222.5558116
0
ARC
8
left_labelLayer
10
343.731772
20
59.9896136
40
2.6510939
50
223.0645176
51
258.140141
0
ARC
8
left_labelLayer
10
344.0541904
20
61.3172059
40
4.0168364
50
257.5311915
51
270.4319476
0
ARC
8
left_labelLayer
10
344.0577903
20
65.0061388
40
7.7057014
50
270.1983969
51
292.2090364
0
ARC
8
left_labelLayer
10
343.6875833
20
66.0692595
40
8.8300813
50
291.825526
51
293.1613344
0
ARC
8
left_labelLayer
10
343.6700208
20
64.6832872
40
8.7588049
50
287.9022997
51
293.4861512
0
ARC
8
left_labelLayer
10
344.3054043
20
62.7228982
40
6.6980207
50
281.9935682
51
287.8851389
0
ARC
8
left_labelLayer
10
344.4593862
20
62.1694554
40
6.1247649
50
275.9054489
51
281.6604035
0
ARC
8
left_labelLayer
10
344.1511153
20
65.0469007
40
9.0186629
50
271.9119957
51
275.972682
0
ARC
8
left_labelLayer
10
344.0385955
20
67.9132027
40
11.8871352
50
269.9669482
51
271.9930901
0
ARC
8
left_labelLayer
10
343.6082339
20
61.9129018
40
2.8759993
50
89.4422424
51
106.2089623
0
ARC
8
left_labelLayer
10
343.4352106
20
62.5437715
40
2.221931
50
106.4656988
51
137.9176454
0
ARC
8
left_labelLayer
10
343.9312719
20
62.1081462
40
2.8820687
50
138.0994676
51
160.5866366
0
ARC
8
left_labelLayer
10
345.206395
20
61.6390492
40
4.2406547
50
160.3353335
51
172.5315316
0
ARC
8
left_labelLayer
10
346.4621521
20
61.4378509
40
5.5120298
50
172.1545411
51
174.7615034
0
ARC
8
left_labelLayer
10
341.0376634
20
61.9693513
40
4.9716941
50
359.6745182
51
8.9224645
0
ARC
8
left_labelLayer
10
342.8141627
20
62.2588054
40
3.1718155
50
8.7342284
51
23.2772107
0
ARC
8
left_labelLayer
10
343.6575364
20
62.6128331
40
2.2571993
50
23.4821427
51
39.7072159
0
ARC
8
left_labelLayer
10
343.864698
20
62.767858
40
1.9988288
50
40.0822834
51
80.6243303
0
ARC
8
left_labelLayer
10
343.6514605
20
61.7903847
40
2.9984187
50
79.6468424
51
90.2910268
0
LINE
8
left_labelLayer
10
354.402832
20
65.8346632
11
354.402832
21
64.7008742
0
LINE
8
left_labelLayer
10
354.402832
20
64.7008742
11
351.9506836
21
64.7008742
0
LINE
8
left_labelLayer
10
351.9506836
20
64.7008742
11
351.9506836
21
56.2018507
0
LINE
8
left_labelLayer
10
351.9506836
20
56.2018507
11
350.4916992
21
56.2018507
0
LINE
8
left_labelLayer
10
350.4916992
20
56.2018507
11
350.4916992
21
64.7008742
0
LINE
8
left_labelLayer
10
350.4916992
20
64.7008742
11
348.7690429
21
64.7008742
0
LINE
8
left_labelLayer
10
348.7690429
20
64.7008742
11
348.7690429
21
65.3600539
0
LINE
8
left_labelLayer
10
348.7690429
20
65.3600539
11
350.4916992
21
65.8873976
0
LINE
8
left_labelLayer
10
350.4916992
20
65.8873976
11
350.4916992
21
66.4235304
0
LINE
8
left_labelLayer
10
355.387207
20
69.6666945
11
355.0092773
21
68.4977492
0
LINE
8
left_labelLayer
10
351.9506836
20
66.4586867
11
351.9506836
21
65.8346632
0
LINE
8
left_labelLayer
10
351.9506836
20
65.8346632
11
354.402832
21
65.8346632
0
ARC
8
left_labelLayer
10
356.4044511
20
66.4915066
40
5.9131426
50
167.5775936
51
180.6586736
0
ARC
8
left_labelLayer
10
353.6238986
20
67.139771
40
3.0584346
50
141.7433891
51
168.232212
0
ARC
8
left_labelLayer
10
353.1711679
20
67.3760625
40
2.5583779
50
98.2551505
51
139.6203374
0
ARC
8
left_labelLayer
10
353.5686726
20
65.5397391
40
4.4346462
50
89.6696889
51
99.931425
0
ARC
8
left_labelLayer
10
353.5697813
20
65.2761028
40
4.6982726
50
81.5641003
51
89.7017445
0
ARC
8
left_labelLayer
10
353.2394765
20
62.9717382
40
7.026171
50
75.9739978
51
81.6564571
0
ARC
8
left_labelLayer
10
352.6725975
20
60.6204883
40
9.4447315
50
73.2964113
51
76.0945751
0
ARC
8
left_labelLayer
10
352.8153852
20
61.7611051
40
7.0848809
50
71.9613609
51
76.5917932
0
ARC
8
left_labelLayer
10
353.3650531
20
64.092818
40
4.6892671
50
76.5183715
51
83.0216717
0
ARC
8
left_labelLayer
10
353.5565182
20
65.6325559
40
3.1376749
50
83.0760516
51
89.792689
0
ARC
8
left_labelLayer
10
353.5502163
20
66.8026973
40
1.9675921
50
89.485892
51
103.4197673
0
ARC
8
left_labelLayer
10
353.3728238
20
67.4842165
40
1.263593
50
102.7677312
51
144.3380403
0
ARC
8
left_labelLayer
10
353.7301954
20
67.2542802
40
1.6881377
50
145.0688538
51
162.1801954
0
ARC
8
left_labelLayer
10
354.9555214
20
66.84202
40
2.9808901
50
161.8437903
51
171.7846869
0
ARC
8
left_labelLayer
10
356.9540121
20
66.5418538
40
5.0017775
50
171.6527858
51
178.4383629
0
ARC
8
left_labelLayer
10
358.8394147
20
66.4614662
40
6.8887318
50
178.1973579
51
180.0231178
0
LINE
8
left_labelLayer
10
360.590332
20
57.4059523
11
360.590332
21
56.2897414
0
LINE
8
left_labelLayer
10
356.2661133
20
58.9704054
11
356.2661133
21
64.7008742
0
LINE
8
left_labelLayer
10
356.2661133
20
64.7008742
11
354.8862304
21
64.7008742
0
LINE
8
left_labelLayer
10
354.8862304
20
64.7008742
11
354.8862304
21
65.4039992
0
LINE
8
left_labelLayer
10
354.8862304
20
65.4039992
11
356.2661133
21
66.0104445
0
LINE
8
left_labelLayer
10
356.2661133
20
66.0104445
11
356.8813476
21
68.0670851
0
LINE
8
left_labelLayer
10
356.8813476
20
68.0670851
11
357.7250976
21
68.0670851
0
LINE
8
left_labelLayer
10
357.7250976
20
68.0670851
11
357.7250976
21
65.8346632
0
LINE
8
left_labelLayer
10
357.7250976
20
65.8346632
11
360.5200195
21
65.8346632
0
LINE
8
left_labelLayer
10
360.5200195
20
65.8346632
11
360.5200195
21
64.7008742
0
LINE
8
left_labelLayer
10
360.5200195
20
64.7008742
11
357.7250976
21
64.7008742
0
LINE
8
left_labelLayer
10
357.7250976
20
64.7008742
11
357.7250976
21
59.0319289
0
ARC
8
left_labelLayer
10
359.2819767
20
62.0216847
40
4.7915241
50
269.8803734
51
278.3028161
0
ARC
8
left_labelLayer
10
359.3275961
20
61.6489215
40
4.4160888
50
278.4155319
51
279.0081225
0
ARC
8
left_labelLayer
10
358.7899871
20
65.0834037
40
7.8923895
50
278.9589452
51
280.510415
0
ARC
8
left_labelLayer
10
359.3023347
20
62.3343163
40
5.0959678
50
280.484797
51
282.6268666
0
ARC
8
left_labelLayer
10
359.7516859
20
60.3379897
40
3.049696
50
282.5876995
51
285.5795307
0
ARC
8
left_labelLayer
10
359.9775754
20
59.5072777
40
2.188844
50
285.7239997
51
286.2569388
0
ARC
8
left_labelLayer
10
359.9769363
20
57.587107
40
1.4350651
50
287.9888342
51
295.3048312
0
ARC
8
left_labelLayer
10
359.6308358
20
58.6342071
40
2.5378729
50
283.3068466
51
288.1198731
0
ARC
8
left_labelLayer
10
359.2651714
20
60.1594828
40
4.1063633
50
280.0069965
51
283.3735444
0
ARC
8
left_labelLayer
10
359.0208845
20
61.4850152
40
5.4541887
50
279.1861115
51
280.1145117
0
ARC
8
left_labelLayer
10
358.8703431
20
62.3413516
40
6.3235865
50
275.5260369
51
279.2939649
0
ARC
8
left_labelLayer
10
359.0395679
20
60.5737737
40
4.5479275
50
270.8932588
51
275.5484126
0
ARC
8
left_labelLayer
10
359.0608144
20
59.7686287
40
3.7425592
50
270.00338
51
270.7601914
0
ARC
8
left_labelLayer
10
359.0021606
20
59.8362694
40
3.8106547
50
253.7847993
51
270.8852531
0
ARC
8
left_labelLayer
10
358.5507
20
58.2966146
40
2.2061823
50
190.3817746
51
253.8772315
0
ARC
8
left_labelLayer
10
360.8517975
20
58.918789
40
4.5859747
50
179.3551063
51
192.8477484
0
ARC
8
left_labelLayer
10
360.6629435
20
59.0135534
40
2.9379033
50
179.6416345
51
189.7505939
0
ARC
8
left_labelLayer
10
359.6258108
20
58.8285677
40
1.8844353
50
189.5479465
51
205.7873647
0
ARC
8
left_labelLayer
10
359.1995927
20
58.6320252
40
1.4151851
50
206.1294373
51
221.408377
0
ARC
8
left_labelLayer
10
359.1518007
20
58.595762
40
1.3553623
50
221.5949156
51
262.3505058
0
ARC
8
left_labelLayer
10
359.2654625
20
59.1802664
40
1.9501062
50
261.3266651
51
270.1912741
0
LINE
8
back_outsideCutPath
10
0
20
246
11
0
21
227.58615
0
LINE
8
back_outsideCutPath
10
0
20
227.58615
11
3
21
227.58615
0
LINE
8
back_outsideCutPath
10
3
20
227.58615
11
3
21
199.86205
0
LINE
8
back_outsideCutPath
10
3
20
199.86205
11
0
21
199.86205
0
LINE
8
back_outsideCutPath
10
0
20
199.86205
11
0
21
172.13795
0
LINE
8
back_outsideCutPath
10
0
20
172.13795
11
3
21
172.13795
0
LINE
8
back_outsideCutPath
10
3
20
172.13795
11
3
21
144.41385
0
LINE
8
back_outsideCutPath
10
3
20
144.41385
11
0
21
144.41385
0
LINE
8
back_outsideCutPath
10
0
20
144.41385
11
0
21
126
0
LINE
8
back_outsideCutPath
10
0
20
126
11
25.24155
21
126
0
LINE
8
back_outsideCutPath
10
25.24155
20
126
11
25.24155
21
129
0
LINE
8
back_outsideCutPath
10
25.24155
20
129
11
52.96565
21
129
0
LINE
8
back_outsideCutPath
10
52.96565
20
129
11
52.96565
21
126
0
LINE
8
back_outsideCutPath
10
52.96565
20
126
11
80.68975
21
126
0
LINE
8
back_outsideCutPath
10
80.68975
20
126
11
80.68975
21
129
0
LINE
8
back_outsideCutPath
10
80.68975
20
129
11
108.41385
21
129
0
LINE
8
back_outsideCutPath
10
108.41385
20
129
11
108.41385
21
126
0
LINE
8
back_outsideCutPath
10
108.41385
20
126
11
136.13795
21
126
0
LINE
8
back_outsideCutPath
10
136.13795
20
126
11
136.13795
21
129
0
LINE
8
back_outsideCutPath
10
136.13795
20
129
11
163.86205
21
129
0
LINE
8
back_outsideCutPath
10
163.86205
20
129
11
163.86205
21
126
0
LINE
8
back_outsideCutPath
10
163.86205
20
126
11
191.58615
21
126
0
LINE
8
back_outsideCutPath
10
191.58615
20
126
11
191.58615
21
129
0
LINE
8
back_outsideCutPath
10
191.58615
20
129
11
219.31025
21
129
0
LINE
8
back_outsideCutPath
10
219.31025
20
129
11
219.31025
21
126
0
LINE
8
back_outsideCutPath
10
219.31025
20
126
11
247.03435
21
126
0
LINE
8
back_outsideCutPath
10
247.03435
20
126
11
247.03435
21
129
0
LINE
8
back_outsideCutPath
10
247.03435
20
129
11
274.75845
21
129
0
LINE
8
back_outsideCutPath
10
274.75845
20
129
11
274.75845
21
126
0
LINE
8
back_outsideCutPath
10
274.75845
20
126
11
300
21
126
0
LINE
8
back_outsideCutPath
10
300
20
126
11
300
21
144.41385
0
LINE
8
back_outsideCutPath
10
300
20
144.41385
11
297
21
144.41385
0
LINE
8
back_outsideCutPath
10
297
20
144.41385
11
297
21
172.13795
0
LINE
8
back_outsideCutPath
10
297
20
172.13795
11
300
21
172.13795
0
LINE
8
back_outsideCutPath
10
300
20
172.13795
11
300
21
199.86205
0
LINE
8
back_outsideCutPath
10
300
20
199.86205
11
297
21
199.86205
0
LINE
8
back_outsideCutPath
10
297
20
199.86205
11
297
21
227.58615
0
LINE
8
back_outsideCutPath
10
297
20
227.58615
11
300
21
227.58615
0
LINE
8
back_outsideCutPath
10
300
20
227.58615
11
300
21
246
0
LINE
8
back_outsideCutPath
10
300
20
246
11
0
21
246
0
LINE
8
back_labelLayer
10
127.0664063
20
178.6524761
11
126.9257813
21
178.6524761
0
LINE
8
back_labelLayer
10
126.9257813
20
178.6524761
11
126.515625
21
177.0001324
0
LINE
8
back_labelLayer
10
126.515625
20
177.0001324
11
125.1210938
21
177.0001324
0
LINE
8
back_labelLayer
10
125.1210938
20
177.0001324
11
125.1210938
21
195.2345074
0
LINE
8
back_labelLayer
10
125.1210938
20
195.2345074
11
127.0664063
21
195.2345074
0
LINE
8
back_labelLayer
10
127.0664063
20
195.2345074
11
127.0664063
21
190.8048199
0
LINE
8
back_labelLayer
10
126.9726563
20
188.1329449
11
127.0664063
21
188.1329449
0
ARC
8
back_labelLayer
10
131.1560129
20
184.1095537
40
5.9455525
50
74.2393375
51
90.5623776
0
ARC
8
back_labelLayer
10
131.5491518
20
185.5518051
40
4.4507589
50
38.5631365
51
74.0670293
0
ARC
8
back_labelLayer
10
130.5374302
20
184.7651328
40
5.7322603
50
16.4709215
51
38.4075341
0
ARC
8
back_labelLayer
10
127.6228095
20
183.8511907
40
8.7865474
50
5.133838
51
16.7973492
0
ARC
8
back_labelLayer
10
123.9433087
20
183.4603268
40
12.4864073
50
359.8779389
51
5.4093642
0
ARC
8
back_labelLayer
10
125.0240579
20
183.3664357
40
11.4058281
50
350.6562831
51
0.3380273
0
ARC
8
back_labelLayer
10
129.0003242
20
182.6901167
40
7.3725456
50
335.8305891
51
350.8254844
0
ARC
8
back_labelLayer
10
130.7494049
20
181.9351877
40
5.4677649
50
321.3161458
51
335.5436187
0
ARC
8
back_labelLayer
10
131.4180905
20
181.3903104
40
4.6052297
50
274.0640024
51
321.4081028
0
ARC
8
back_labelLayer
10
131.10657
20
183.3636235
40
6.5978721
50
269.9225933
51
275.5481475
0
ARC
8
back_labelLayer
10
131.0648519
20
182.6662272
40
5.900561
50
255.7755484
51
270.3185388
0
ARC
8
back_labelLayer
10
130.8964635
20
181.9180987
40
5.1340345
50
245.9801715
51
255.5455942
0
ARC
8
back_labelLayer
10
130.5703199
20
181.1596462
40
4.3085161
50
215.5850158
51
245.8361621
0
ARC
8
back_labelLayer
10
86.5082399
20
190.7705264
40
40.5581808
50
358.1123256
51
0.0484457
0
ARC
8
back_labelLayer
10
97.795961
20
190.3915756
40
29.2641033
50
355.7238694
51
358.1258854
0
ARC
8
back_labelLayer
10
102.7332046
20
190.0526604
40
24.3153517
50
355.4717421
51
355.6527888
0
ARC
8
back_labelLayer
10
130.6943291
20
185.603097
40
4.4228898
50
95.1835114
51
145.1109019
0
ARC
8
back_labelLayer
10
131.0830844
20
183.41088
40
6.6439559
50
89.8743359
51
96.8145463
0
ARC
8
back_labelLayer
10
130.7756792
20
182.9595871
40
5.4664782
50
89.5731239
51
100.7324421
0
ARC
8
back_labelLayer
10
130.3710071
20
185.0041212
40
3.3823909
50
100.4469409
51
119.6700738
0
ARC
8
back_labelLayer
10
129.9957526
20
185.705704
40
2.5871268
50
120.1402921
51
142.4249147
0
ARC
8
back_labelLayer
10
130.6165794
20
185.2950059
40
3.3300333
50
143.3382316
51
161.2559928
0
ARC
8
back_labelLayer
10
133.2127514
20
184.3732769
40
6.0848252
50
160.89263
51
171.233437
0
ARC
8
back_labelLayer
10
137.5467598
20
183.6740967
40
10.4748073
50
171.0667716
51
177.8456918
0
ARC
8
back_labelLayer
10
142.0538641
20
183.4448572
40
14.987462
50
177.6176493
51
180.0425531
0
ARC
8
back_labelLayer
10
139.9285513
20
183.3835014
40
12.8622431
50
179.7762696
51
185.7075296
0
ARC
8
back_labelLayer
10
134.8574035
20
182.8609906
40
7.7642873
50
185.5924686
51
194.2050835
0
ARC
8
back_labelLayer
10
131.6089109
20
182.0178904
40
4.4082768
50
193.9430235
51
208.0218478
0
ARC
8
back_labelLayer
10
130.2945474
20
181.3492362
40
2.9339851
50
208.5536475
51
217.5605739
0
ARC
8
back_labelLayer
10
130.1874759
20
181.304704
40
2.822121
50
218.1690414
51
253.8047132
0
ARC
8
back_labelLayer
10
130.7109262
20
182.9185583
40
4.5182343
50
253.1382536
51
266.8482973
0
ARC
8
back_labelLayer
10
130.857708
20
184.6495862
40
6.254925
50
266.3775715
51
270.0510514
0
ARC
8
back_labelLayer
10
130.904777
20
182.2724036
40
3.8779619
50
269.3869
51
285.8630723
0
ARC
8
back_labelLayer
10
131.1928858
20
181.2311406
40
2.7976114
50
286.0162882
51
326.8497398
0
ARC
8
back_labelLayer
10
129.8023261
20
182.1523364
40
4.4655995
50
326.7104982
51
343.6661705
0
ARC
8
back_labelLayer
10
127.1992647
20
182.9477452
40
7.1873631
50
343.4171489
51
353.6369015
0
ARC
8
back_labelLayer
10
123.26764
20
183.4142598
40
11.1465053
50
353.4934728
51
0.220537
0
ARC
8
back_labelLayer
10
122.9210761
20
183.503683
40
11.4930805
50
359.768089
51
6.3095294
0
ARC
8
back_labelLayer
10
127.2502825
20
184.0004872
40
7.1355218
50
6.1648611
51
16.0396304
0
ARC
8
back_labelLayer
10
130.0390957
20
184.8223488
40
4.2282367
50
15.7779367
51
32.0151266
0
ARC
8
back_labelLayer
10
130.9088355
20
185.3204285
40
3.2269563
50
32.7033549
51
35.5242843
0
ARC
8
back_labelLayer
10
131.2268091
20
185.546433
40
2.836848
50
35.5408415
51
79.801127
0
ARC
8
back_labelLayer
10
130.8458483
20
183.926895
40
4.4991151
50
78.6781277
51
90.3749445
0
LINE
8
back_labelLayer
10
149.1679688
20
177.0001324
11
147.7265625
21
177.0001324
0
LINE
8
back_labelLayer
10
147.7265625
20
177.0001324
11
147.3398438
21
178.8282574
0
LINE
8
back_labelLayer
10
147.3398438
20
178.8282574
11
147.2460938
21
178.8282574
0
LINE
8
back_labelLayer
10
145.0898438
20
184.6290386
11
147.2695313
21
184.6993511
0
LINE
8
back_labelLayer
10
147.2695313
20
184.6993511
11
147.2695313
21
185.4962261
0
LINE
8
back_labelLayer
10
140.90625
20
187.4649761
11
140.3085938
21
188.9532574
0
LINE
8
back_labelLayer
10
149.1679688
20
185.7657574
11
149.1679688
21
177.0001324
0
LINE
8
back_labelLayer
10
147.2226563
20
182.1563824
11
147.2226563
21
183.3165386
0
LINE
8
back_labelLayer
10
147.2226563
20
183.3165386
11
145.2773438
21
183.2345074
0
ARC
8
back_labelLayer
10
140.9168089
20
183.8255374
40
8.0642827
50
314.7445045
51
321.7071815
0
ARC
8
back_labelLayer
10
142.8980667
20
181.8124287
40
5.2397761
50
304.8485683
51
314.8530525
0
ARC
8
back_labelLayer
10
143.8498429
20
180.457672
40
3.5841275
50
294.3932659
51
304.7371669
0
ARC
8
back_labelLayer
10
143.5246741
20
181.3002076
40
4.4860449
50
281.2979721
51
293.7313636
0
ARC
8
back_labelLayer
10
143.0948287
20
183.3834754
40
6.6131673
50
272.9335189
51
281.4138927
0
ARC
8
back_labelLayer
10
142.9523507
20
185.5202993
40
8.7545448
50
269.9539374
51
273.1490663
0
ARC
8
back_labelLayer
10
142.9031417
20
182.7355185
40
5.9699101
50
258.6719789
51
270.4047341
0
ARC
8
back_labelLayer
10
142.4884631
20
180.7518598
40
3.9434785
50
238.3273093
51
258.9183756
0
ARC
8
back_labelLayer
10
142.2027132
20
180.2305357
40
3.3499013
50
227.7689708
51
237.8049745
0
ARC
8
back_labelLayer
10
142.1133172
20
180.1057406
40
3.1974619
50
192.0827705
51
227.4520684
0
ARC
8
back_labelLayer
10
143.761795
20
180.512105
40
4.8947612
50
179.5457202
51
192.6949237
0
ARC
8
back_labelLayer
10
142.2303715
20
180.6893334
40
3.3660312
50
115.4904639
51
182.3568125
0
ARC
8
back_labelLayer
10
143.9161182
20
177.5973245
40
6.8851829
50
101.3568231
51
117.0798563
0
ARC
8
back_labelLayer
10
145.2699265
20
171.2708621
40
13.3546109
50
92.4696301
51
101.7064987
0
ARC
8
back_labelLayer
10
145.6590492
20
165.6349287
40
19.002637
50
91.7164959
51
92.9095743
0
ARC
8
back_labelLayer
10
141.6822131
20
185.5261319
40
5.5873982
50
359.6933311
51
8.0035842
0
ARC
8
back_labelLayer
10
143.7958086
20
185.8340385
40
3.4515355
50
7.8272768
51
20.6041678
0
ARC
8
back_labelLayer
10
144.9918646
20
186.2915891
40
2.1709825
50
20.409421
51
41.4479502
0
ARC
8
back_labelLayer
10
145.1685826
20
186.3887253
40
1.9747181
50
42.7295591
51
71.0380166
0
ARC
8
back_labelLayer
10
144.7525322
20
185.257477
40
3.1798755
50
70.5716187
51
83.9928721
0
ARC
8
back_labelLayer
10
144.553767
20
183.642922
40
4.8064518
50
83.6506652
51
90.1752873
0
ARC
8
back_labelLayer
10
144.5886353
20
182.1160286
40
6.3335165
50
90.4484618
51
103.7665441
0
ARC
8
back_labelLayer
10
145.3334197
20
178.9752398
40
9.5613448
50
103.6226491
51
112.4320076
0
ARC
8
back_labelLayer
10
146.6101469
20
175.7516201
40
13.0283211
50
112.212251
51
115.9640756
0
ARC
8
back_labelLayer
10
144.5656163
20
181.0586613
40
8.9692189
50
106.3568617
51
118.3349874
0
ARC
8
back_labelLayer
10
144.9476157
20
179.8786886
40
10.2090694
50
104.5162148
51
106.5490009
0
ARC
8
back_labelLayer
10
144.6674835
20
181.0458621
40
9.0089649
50
90.0714437
51
104.6521074
0
ARC
8
back_labelLayer
10
144.7028395
20
181.8390082
40
8.2159438
50
81.5679903
51
90.3249042
0
ARC
8
back_labelLayer
10
145.1778737
20
184.9337296
40
5.085043
50
68.2273531
51
81.7494287
0
ARC
8
back_labelLayer
10
145.8395165
20
186.579956
40
3.310836
50
47.8683227
51
68.293417
0
ARC
8
back_labelLayer
10
145.9469012
20
186.7943713
40
3.0804559
50
19.2331102
51
46.6741178
0
ARC
8
back_labelLayer
10
144.158028
20
186.128907
40
4.98885
50
6.3379064
51
19.6815414
0
ARC
8
back_labelLayer
10
141.5136235
20
185.7921199
40
7.6543905
50
359.8026672
51
6.6583402
0
ARC
8
back_labelLayer
10
143.3713671
20
183.7270931
40
5.3560114
50
269.5792024
51
282.0413563
0
ARC
8
back_labelLayer
10
143.7620494
20
181.9941866
40
3.5797893
50
281.7121037
51
306.4593906
0
ARC
8
back_labelLayer
10
143.9353069
20
181.7092661
40
3.2478135
50
306.9880658
51
313.855952
0
ARC
8
back_labelLayer
10
143.914678
20
181.7033876
40
3.2579223
50
314.1891852
51
347.4269941
0
ARC
8
back_labelLayer
10
142.2826998
20
182.1123542
40
4.9399851
50
346.9177642
51
0.2824686
0
ARC
8
back_labelLayer
10
141.027173
20
182.1563704
40
6.1954831
50
359.8181646
51
0.0001108
0
ARC
8
back_labelLayer
10
145.7400743
20
168.9583896
40
14.283615
50
91.856473
51
96.4478418
0
ARC
8
back_labelLayer
10
145.0959268
20
174.5323752
40
8.6725623
50
96.3545462
51
102.9953265
0
ARC
8
back_labelLayer
10
144.2215352
20
178.2473963
40
4.8560914
50
102.7995334
51
113.2433136
0
ARC
8
back_labelLayer
10
143.5007091
20
179.9713333
40
2.9876637
50
113.58864
51
121.6805252
0
ARC
8
back_labelLayer
10
142.9999098
20
180.7340352
40
2.0757594
50
120.9734075
51
172.4179779
0
ARC
8
back_labelLayer
10
143.9787801
20
180.5385135
40
3.0725498
50
171.2122287
51
180.2058205
0
ARC
8
back_labelLayer
10
143.6862336
20
180.5045059
40
2.7800785
50
179.5265923
51
192.7787119
0
ARC
8
back_labelLayer
10
142.7457802
20
180.2765366
40
1.8125513
50
192.326437
51
222.0579754
0
ARC
8
back_labelLayer
10
142.6758265
20
180.2347053
40
1.7326629
50
222.5805334
51
229.2547152
0
ARC
8
back_labelLayer
10
142.9122111
20
180.5390429
40
2.1176128
50
229.7837093
51
254.2724202
0
ARC
8
back_labelLayer
10
143.2270402
20
181.5881789
40
3.2128636
50
253.9396589
51
266.4533954
0
ARC
8
back_labelLayer
10
143.3275246
20
182.7464363
40
4.3752125
50
266.0783141
51
270.0590167
0
LINE
8
back_labelLayer
10
161.7421875
20
189.4102886
11
161.1445313
21
187.7579449
0
LINE
8
back_labelLayer
10
161.5546875
20
179.1563824
11
161.5546875
21
177.4337261
0
ARC
8
back_labelLayer
10
158.2465471
20
184.0359095
40
7.2704169
50
256.424375
51
270.4889755
0
ARC
8
back_labelLayer
10
157.6655722
20
181.7684124
40
4.9300073
50
221.7976337
51
256.8020476
0
ARC
8
back_labelLayer
10
158.2281797
20
182.1841002
40
5.6268661
50
196.0166595
51
221.1349177
0
ARC
8
back_labelLayer
10
161.0557885
20
183.0483645
40
8.5833254
50
183.5913724
51
196.3539612
0
ARC
8
back_labelLayer
10
164.2233104
20
183.32742
40
11.7623796
50
179.938838
51
183.9815179
0
ARC
8
back_labelLayer
10
163.1941834
20
183.4090816
40
10.7334683
50
169.8978381
51
180.3688909
0
ARC
8
back_labelLayer
10
159.4576191
20
184.1002919
40
6.9336382
50
153.0875155
51
170.1051379
0
ARC
8
back_labelLayer
10
158.0398875
20
184.7777227
40
5.3629556
50
138.6550104
51
152.6853581
0
ARC
8
back_labelLayer
10
157.7752808
20
184.9705501
40
5.0370127
50
101.4912886
51
138.313389
0
ARC
8
back_labelLayer
10
158.3827499
20
182.4423259
40
7.6361278
50
89.5891929
51
102.1787698
0
ARC
8
back_labelLayer
10
158.4294629
20
181.2996238
40
8.7786372
50
77.7702435
51
89.9475437
0
ARC
8
back_labelLayer
10
158.2633636
20
180.3831971
40
9.7095037
50
74.6796517
51
77.9578902
0
ARC
8
back_labelLayer
10
159.1608306
20
183.6345316
40
6.3365884
50
70.0945781
51
74.7386149
0
ARC
8
back_labelLayer
10
160.0145835
20
185.9742407
40
3.8459919
50
63.5033593
51
70.186182
0
ARC
8
back_labelLayer
10
160.4186785
20
186.8207203
40
2.9081851
50
62.9287635
51
63.1880558
0
ARC
8
back_labelLayer
10
157.9488813
20
179.7156031
40
8.653984
50
68.3294447
51
74.8831287
0
ARC
8
back_labelLayer
10
157.4922804
20
178.096532
40
10.3361217
50
74.7802179
51
77.4497198
0
ARC
8
back_labelLayer
10
157.9716661
20
180.3466619
40
8.0356158
50
77.2998867
51
81.7345191
0
ARC
8
back_labelLayer
10
158.3212741
20
182.7827201
40
5.5746039
50
81.6910301
51
87.5078745
0
ARC
8
back_labelLayer
10
158.3887313
20
184.0435114
40
4.3120902
50
87.6749154
51
89.9748374
0
ARC
8
back_labelLayer
10
158.2941898
20
184.0416932
40
4.3149857
50
88.7193951
51
112.5667767
0
ARC
8
back_labelLayer
10
157.9875812
20
185.0554188
40
3.2629329
50
114.4265744
51
161.6632753
0
ARC
8
back_labelLayer
10
161.0334365
20
183.8632387
40
6.5314954
50
160.141842
51
175.1368186
0
ARC
8
back_labelLayer
10
165.2256804
20
183.3924833
40
10.7491571
50
174.5309899
51
180.154949
0
ARC
8
back_labelLayer
10
163.8975281
20
183.3147658
40
9.4210912
50
179.7041396
51
188.0743634
0
ARC
8
back_labelLayer
10
160.5041555
20
182.8182787
40
5.9916414
50
187.9315157
51
200.3885385
0
ARC
8
back_labelLayer
10
158.6693377
20
182.138573
40
4.0349733
50
200.4183427
51
216.6392819
0
ARC
8
back_labelLayer
10
157.9001408
20
181.5886926
40
3.0896597
50
216.9695372
51
261.310298
0
ARC
8
back_labelLayer
10
158.2396052
20
183.1713292
40
4.7064051
50
260.1359366
51
270.2692113
0
ARC
8
back_labelLayer
10
158.2239352
20
186.6081981
40
8.1433096
50
270.2658435
51
286.289149
0
ARC
8
back_labelLayer
10
157.7288779
20
188.454429
40
10.0543766
50
286.0460748
51
292.3653923
0
ARC
8
back_labelLayer
10
159.0472766
20
182.3664012
40
5.5333889
50
282.0344333
51
296.9454504
0
ARC
8
back_labelLayer
10
158.4782053
20
184.9309894
40
8.1602941
50
272.5980407
51
282.1878426
0
ARC
8
back_labelLayer
10
158.3150158
20
187.4338364
40
10.6680809
50
269.9655087
51
272.8642743
0
LINE
8
back_labelLayer
10
166.4296875
20
183.5743511
11
166.5234375
21
183.5743511
0
LINE
8
back_labelLayer
10
168.0585938
20
185.4493511
11
172.2070313
21
189.8438824
0
LINE
8
back_labelLayer
10
172.2070313
20
189.8438824
11
174.515625
21
189.8438824
0
LINE
8
back_labelLayer
10
174.515625
20
189.8438824
11
169.3125
21
184.3712261
0
LINE
8
back_labelLayer
10
169.3125
20
184.3712261
11
174.8789063
21
177.0001324
0
LINE
8
back_labelLayer
10
174.8789063
20
177.0001324
11
172.5234375
21
177.0001324
0
LINE
8
back_labelLayer
10
172.5234375
20
177.0001324
11
167.9882813
21
183.0704449
0
LINE
8
back_labelLayer
10
167.9882813
20
183.0704449
11
166.5234375
21
181.8048199
0
LINE
8
back_labelLayer
10
166.5234375
20
181.8048199
11
166.5234375
21
177.0001324
0
LINE
8
back_labelLayer
10
166.5234375
20
177.0001324
11
164.6015625
21
177.0001324
0
LINE
8
back_labelLayer
10
164.6015625
20
177.0001324
11
164.6015625
21
195.2345074
0
LINE
8
back_labelLayer
10
164.6015625
20
195.2345074
11
166.5234375
21
195.2345074
0
LINE
8
back_labelLayer
10
166.5234375
20
195.2345074
11
166.5234375
21
185.5665386
0
ARC
8
back_labelLayer
10
175.9230727
20
176.9208888
40
11.5161496
50
142.3233921
51
144.7075134
0
ARC
8
back_labelLayer
10
182.056029
20
172.1903801
40
19.2615259
50
140.4331438
51
142.3365299
0
ARC
8
back_labelLayer
10
190.0468476
20
165.6125287
40
29.611457
50
139.2798928
51
140.4703537
0
ARC
8
back_labelLayer
10
199.2876897
20
157.6660521
40
41.7991405
50
138.3417674
51
139.2877318
0
ARC
8
back_labelLayer
10
153.5607382
20
185.5907903
40
12.9627219
50
358.2738775
51
359.8928064
0
ARC
8
back_labelLayer
10
143.4720901
20
185.8719603
40
23.0552729
50
357.5041986
51
358.330657
0
ARC
8
back_labelLayer
10
128.3815175
20
186.5384986
40
38.1605571
50
356.6325087
51
357.491032
0
ARC
8
back_labelLayer
10
103.2909947
20
188.0018532
40
63.2937152
50
356.0329146
51
356.6442668
0
ARC
8
back_labelLayer
10
86.0846442
20
189.1638508
40
80.5392356
50
356.0204194
51
356.0550964
0
LINE
8
right_outsideCutPath
10
306
20
246
11
306
21
227.58615
0
LINE
8
right_outsideCutPath
10
306
20
227.58615
11
303
21
227.58615
0
LINE
8
right_outsideCutPath
10
303
20
227.58615
11
303
21
199.86205
0
LINE
8
right_outsideCutPath
10
303
20
199.86205
11
306
21
199.86205
0
LINE
8
right_outsideCutPath
10
306
20
199.86205
11
306
21
172.13795
0
LINE
8
right_outsideCutPath
10
306
20
172.13795
11
303
21
172.13795
0
LINE
8
right_outsideCutPath
10
303
20
172.13795
11
303
21
144.41385
0
LINE
8
right_outsideCutPath
10
303
20
144.41385
11
306
21
144.41385
0
LINE
8
right_outsideCutPath
10
306
20
144.41385
11
306
21
126
0
LINE
8
right_outsideCutPath
10
306
20
126
11
334.13795
21
126
0
LINE
8
right_outsideCutPath
10
334.13795
20
126
11
334.13795
21
129
0
LINE
8
right_outsideCutPath
10
334.13795
20
129
11
361.86205
21
129
0
LINE
8
right_outsideCutPath
10
361.86205
20
129
11
361.86205
21
126
0
LINE
8
right_outsideCutPath
10
361.86205
20
126
11
389.58615
21
126
0
LINE
8
right_outsideCutPath
10
389.58615
20
126
11
390
21
126
0
LINE
8
right_outsideCutPath
10
390
20
126
11
390
21
144.41385
0
LINE
8
right_outsideCutPath
10
390
20
144.41385
11
393
21
144.41385
0
LINE
8
right_outsideCutPath
10
393
20
144.41385
11
393
21
172.13795
0
LINE
8
right_outsideCutPath
10
393
20
172.13795
11
390
21
172.13795
0
LINE
8
right_outsideCutPath
10
390
20
172.13795
11
390
21
199.86205
0
LINE
8
right_outsideCutPath
10
390
20
199.86205
11
393
21
199.86205
0
LINE
8
right_outsideCutPath
10
393
20
199.86205
11
393
21
227.58615
0
LINE
8
right_outsideCutPath
10
393
20
227.58615
11
390
21
227.58615
0
LINE
8
right_outsideCutPath
10
390
20
227.58615
11
390
21
246
0
LINE
8
right_outsideCutPath
10
390
20
246
11
306
21
246
0
LINE
8
right_labelLayer
10
334.9262695
20
191.0273968
11
334.7241211
21
189.6738812
0
LINE
8
right_labelLayer
10
330.8393554
20
186.4922406
11
330.8393554
21
181.3242718
0
LINE
8
right_labelLayer
10
330.8393554
20
181.3242718
11
329.3803711
21
181.3242718
0
LINE
8
right_labelLayer
10
329.3803711
20
181.3242718
11
329.3803711
21
190.9570843
0
LINE
8
right_labelLayer
10
329.3803711
20
190.9570843
11
330.5844726
21
190.9570843
0
LINE
8
right_labelLayer
10
330.5844726
20
190.9570843
11
330.7514648
21
189.1729047
0
LINE
8
right_labelLayer
10
330.7514648
20
189.1729047
11
330.8217773
21
189.1729047
0
ARC
8
right_labelLayer
10
333.7898777
20
184.4349023
40
6.6979801
50
84.9923003
51
90.1281023
0
ARC
8
right_labelLayer
10
333.9507306
20
186.2371007
40
4.8886207
50
78.4891794
51
85.0265903
0
ARC
8
right_labelLayer
10
333.3263969
20
183.3974715
40
6.4301595
50
77.445389
51
81.6360274
0
ARC
8
right_labelLayer
10
333.6065578
20
185.3285904
40
4.4788291
50
81.5884226
51
87.1916898
0
ARC
8
right_labelLayer
10
333.6673973
20
186.3836643
40
3.4220536
50
87.3436084
51
89.9659067
0
ARC
8
right_labelLayer
10
333.6532647
20
187.2777809
40
2.5279879
50
89.6335367
51
137.0880802
0
ARC
8
right_labelLayer
10
334.2736926
20
186.5800957
40
3.4585592
50
135.6209221
51
138.8377222
0
ARC
8
right_labelLayer
10
334.182768
20
186.6688452
40
3.3316996
50
138.9575665
51
174.5422296
0
ARC
8
right_labelLayer
10
335.2677967
20
186.4990654
40
4.4284466
50
173.6907304
51
180.0882999
0
ARC
8
right_labelLayer
10
335.1144252
20
186.7544463
40
4.9270444
50
139.4139444
51
150.603287
0
ARC
8
right_labelLayer
10
334.2309973
20
187.5114498
40
3.7636444
50
124.2321387
51
139.4161072
0
ARC
8
right_labelLayer
10
333.7586414
20
188.2244702
40
2.9084408
50
89.6796604
51
124.440568
0
LINE
8
right_labelLayer
10
338.1870117
20
190.9570843
11
338.1870117
21
181.3242718
0
LINE
8
right_labelLayer
10
338.1870117
20
181.3242718
11
336.7280273
21
181.3242718
0
LINE
8
right_labelLayer
10
336.7280273
20
181.3242718
11
336.7280273
21
190.9570843
0
LINE
8
right_labelLayer
10
336.7280273
20
190.9570843
11
338.1870117
21
190.9570843
0
ARC
8
right_labelLayer
10
338.2216836
20
193.5774371
40
1.616734
50
170.8451746
51
180.3544379
0
ARC
8
right_labelLayer
10
337.6164428
20
193.6786354
40
1.0031085
50
155.9678666
51
171.051584
0
ARC
8
right_labelLayer
10
337.3232945
20
193.8086891
40
0.6824072
50
133.7879825
51
155.9171448
0
ARC
8
right_labelLayer
10
337.4315247
20
193.6890364
40
0.8436926
50
92.6446054
51
133.4710597
0
ARC
8
right_labelLayer
10
337.4657109
20
193.4205139
40
1.113719
50
89.9692521
51
93.7641305
0
ARC
8
right_labelLayer
10
337.4796295
20
193.6747206
40
0.8596154
50
46.3708364
51
90.8879096
0
ARC
8
right_labelLayer
10
337.5651797
20
193.7630412
40
0.7366592
50
17.7252289
51
46.4472805
0
ARC
8
right_labelLayer
10
337.1662243
20
193.6256575
40
1.1585402
50
4.9428326
51
18.1900537
0
ARC
8
right_labelLayer
10
336.6587111
20
193.5707921
40
1.6689291
50
359.8847791
51
5.3181785
0
ARC
8
right_labelLayer
10
336.8181363
20
193.5571842
40
1.5095352
50
349.8344973
51
0.3891172
0
ARC
8
right_labelLayer
10
337.3676938
20
193.4546654
40
0.9505188
50
332.6322009
51
350.0705974
0
ARC
8
right_labelLayer
10
337.5815905
20
193.3490445
40
0.7120232
50
313.6153748
51
332.2677313
0
ARC
8
right_labelLayer
10
337.4785068
20
193.4429065
40
0.8511439
50
269.1788333
51
314.2807374
0
ARC
8
right_labelLayer
10
337.456639
20
193.5185736
40
0.9267741
50
250.5000285
51
270.597809
0
ARC
8
right_labelLayer
10
337.4285909
20
193.4136938
40
0.8185923
50
225.1300641
51
249.9001637
0
ARC
8
right_labelLayer
10
337.3846823
20
193.3651889
40
0.7532452
50
197.7934294
51
224.8941235
0
ARC
8
right_labelLayer
10
337.7956657
20
193.5060289
40
1.1876384
50
184.9924854
51
198.204084
0
ARC
8
right_labelLayer
10
338.3276066
20
193.5638467
40
1.7226298
50
179.8806195
51
185.3685402
0
LINE
8
right_labelLayer
10
345.8334961
20
190.9570843
11
349.1645508
21
190.9570843
0
LINE
8
right_labelLayer
10
349.1645508
20
190.9570843
11
349.1645508
21
190.0342328
0
LINE
8
right_labelLayer
10
349.1645508
20
190.0342328
11
347.3803711
21
189.8232953
0
LINE
8
right_labelLayer
10
344.0932617
20
182.8535687
11
345.7983398
21
182.8535687
0
LINE
8
right_labelLayer
10
345.3325195
20
181.5439984
11
343.5834961
21
181.5439984
0
ARC
8
right_labelLayer
10
345.5211163
20
188.3519031
40
2.3710384
50
29.458442
51
38.3576736
0
ARC
8
right_labelLayer
10
344.552286
20
187.7988337
40
3.4866101
50
23.1844948
51
29.5422744
0
ARC
8
right_labelLayer
10
343.6279606
20
187.3889165
40
4.497689
50
21.2506291
51
23.3489863
0
ARC
8
right_labelLayer
10
345.199142
20
188.0137837
40
2.8068895
50
6.8504954
51
20.9871699
0
ARC
8
right_labelLayer
10
344.4086241
20
187.9066015
40
3.6045686
50
359.8710749
51
7.0432231
0
ARC
8
right_labelLayer
10
344.6687085
20
187.8637138
40
3.3446559
50
342.5649834
51
0.5957557
0
ARC
8
right_labelLayer
10
345.285565
20
187.6933772
40
2.7051945
50
310.60979
51
342.0923687
0
ARC
8
right_labelLayer
10
344.9396553
20
188.095735
40
3.2358025
50
284.9315934
51
310.6222662
0
ARC
8
right_labelLayer
10
344.5067904
20
189.6125571
40
4.8130202
50
272.5334976
51
285.2579627
0
ARC
8
right_labelLayer
10
344.3955008
20
191.1326668
40
6.3367161
50
269.9691585
51
272.9312234
0
ARC
8
right_labelLayer
10
344.3816833
20
189.4848683
40
4.6889283
50
263.4836737
51
270.1271617
0
ARC
8
right_labelLayer
10
344.3053087
20
188.7594412
40
3.9595255
50
259.4963741
51
263.3904144
0
ARC
8
right_labelLayer
10
344.7780026
20
182.5611878
40
2.5961938
50
117.3935043
51
128.4095748
0
ARC
8
right_labelLayer
10
344.1096432
20
183.3903332
40
1.5312708
50
128.0881927
51
147.1400209
0
ARC
8
right_labelLayer
10
343.7495653
20
183.631973
40
1.0977211
50
147.5368814
51
180.2592421
0
ARC
8
right_labelLayer
10
343.4079728
20
183.6176611
40
0.7561751
50
179.2918979
51
198.358052
0
ARC
8
right_labelLayer
10
343.2663928
20
183.5804527
40
0.6101521
50
199.2291838
51
239.5690923
0
ARC
8
right_labelLayer
10
343.3841565
20
183.7432783
40
0.8104185
50
238.2207582
51
239.8450561
0
ARC
8
right_labelLayer
10
343.4774315
20
183.9353038
40
1.0234352
50
240.7302005
51
254.5027067
0
ARC
8
right_labelLayer
10
343.7567544
20
184.8978307
40
2.0256361
50
254.1636387
51
262.2123684
0
ARC
8
right_labelLayer
10
343.9780122
20
186.4431911
40
3.586738
50
262.0555298
51
267.2083515
0
ARC
8
right_labelLayer
10
344.0848963
20
188.4035276
40
5.5499652
50
267.0918933
51
270.0863608
0
ARC
8
right_labelLayer
10
345.830234
20
176.8814268
40
5.9722271
50
81.5744191
51
90.3059843
0
ARC
8
right_labelLayer
10
346.157824
20
179.0178973
40
3.8108314
50
68.3671554
51
81.7399343
0
ARC
8
right_labelLayer
10
346.5856898
20
180.1113675
40
2.6366488
50
52.1879547
51
68.250098
0
ARC
8
right_labelLayer
10
346.8850764
20
180.5147706
40
2.1344312
50
8.6201309
51
51.8982482
0
ARC
8
right_labelLayer
10
345.8357852
20
180.2927494
40
3.2057509
50
359.7430603
51
9.7326512
0
ARC
8
right_labelLayer
10
345.8827737
20
180.238669
40
3.1589797
50
340.5268817
51
0.7201557
0
ARC
8
right_labelLayer
10
346.3469035
20
180.1231068
40
2.6832652
50
302.9903756
51
339.5494497
0
ARC
8
right_labelLayer
10
345.8595476
20
180.7424376
40
3.4688386
50
303.1870655
51
304.1722895
0
ARC
8
right_labelLayer
10
345.4056169
20
181.5284001
40
4.3753606
50
286.2542267
51
302.5280203
0
ARC
8
right_labelLayer
10
344.5792849
20
184.254027
40
7.2233959
50
276.4939902
51
286.4953615
0
ARC
8
right_labelLayer
10
344.0637056
20
188.5639882
40
11.5640413
50
269.7545186
51
276.6169593
0
ARC
8
right_labelLayer
10
343.9756564
20
185.1742888
40
8.1743264
50
262.5634839
51
270.2698824
0
ARC
8
right_labelLayer
10
343.5752925
20
182.2067962
40
5.1799917
50
251.2102039
51
262.7064036
0
ARC
8
right_labelLayer
10
342.9982376
20
180.5130499
40
3.3906432
50
235.9668095
51
251.2228932
0
ARC
8
right_labelLayer
10
342.3866077
20
179.6404937
40
2.3253051
50
208.9036237
51
236.423142
0
ARC
8
right_labelLayer
10
342.4427566
20
179.616956
40
2.3635654
50
182.207983
51
207.7461562
0
ARC
8
right_labelLayer
10
343.1573529
20
179.6883432
40
3.0806929
50
179.978369
51
183.0226718
0
ARC
8
right_labelLayer
10
342.3071747
20
179.7286449
40
2.230858
50
138.3916179
51
181.0052623
0
ARC
8
right_labelLayer
10
342.5427556
20
179.516928
40
2.5475902
50
113.8121362
51
138.3496311
0
ARC
8
right_labelLayer
10
342.9896251
20
178.5519494
40
3.6108941
50
102.2870657
51
114.1172665
0
ARC
8
right_labelLayer
10
342.8492108
20
183.4579936
40
1.5142368
50
216.5861613
51
245.4968549
0
ARC
8
right_labelLayer
10
343.0658061
20
183.641772
40
1.797787
50
215.4650053
51
217.1747967
0
ARC
8
right_labelLayer
10
342.7049176
20
183.381107
40
1.3526179
50
182.1767408
51
215.3415578
0
ARC
8
right_labelLayer
10
343.026346
20
183.4155917
40
1.6752719
50
179.9836849
51
182.9377768
0
ARC
8
right_labelLayer
10
343.0194475
20
183.4301716
40
1.6684329
50
161.7225885
51
180.4843147
0
ARC
8
right_labelLayer
10
342.836003
20
183.4802286
40
1.4785785
50
144.4963427
51
161.3350807
0
ARC
8
right_labelLayer
10
343.325008
20
183.1157774
40
2.0883623
50
132.7259142
51
144.1479119
0
ARC
8
right_labelLayer
10
344.1087436
20
182.2788382
40
3.2349524
50
125.2213113
51
132.8655121
0
ARC
8
right_labelLayer
10
344.8966199
20
181.1847719
40
4.5831427
50
121.2352092
51
125.3794845
0
ARC
8
right_labelLayer
10
343.4998554
20
187.4661607
40
2.5577176
50
215.1640829
51
247.474786
0
ARC
8
right_labelLayer
10
343.9772813
20
187.8514645
40
3.170173
50
212.4713894
51
215.8875648
0
ARC
8
right_labelLayer
10
343.8517438
20
187.7616517
40
3.0160551
50
183.0160786
51
212.3123266
0
ARC
8
right_labelLayer
10
344.5135654
20
187.8354216
40
3.6810463
50
179.9759439
51
183.6207187
0
ARC
8
right_labelLayer
10
345.0476308
20
187.8725689
40
4.2152616
50
166.8195921
51
180.4839215
0
ARC
8
right_labelLayer
10
343.6492548
20
188.2256276
40
2.7733312
50
132.3287738
51
167.3340879
0
ARC
8
right_labelLayer
10
343.8363365
20
187.9567135
40
3.0984106
50
106.2188865
51
131.5377685
0
ARC
8
right_labelLayer
10
344.3096912
20
186.4240297
40
4.7023821
50
93.6329693
51
106.5408701
0
ARC
8
right_labelLayer
10
344.4642245
20
184.6891362
40
6.4437333
50
89.9380529
51
94.0268003
0
ARC
8
right_labelLayer
10
344.4892422
20
185.5405278
40
5.5923669
50
82.5852022
51
90.1849376
0
ARC
8
right_labelLayer
10
344.6601192
20
186.86263
40
4.2592687
50
74.0089092
51
82.5694431
0
ARC
8
right_labelLayer
10
342.9480837
20
179.6871565
40
1.465309
50
179.2207671
51
200.9355424
0
ARC
8
right_labelLayer
10
342.7738279
20
179.646807
40
1.288374
50
202.028668
51
236.1457662
0
ARC
8
right_labelLayer
10
343.036526
20
179.9803766
40
1.7120391
50
235.0635956
51
238.5039945
0
ARC
8
right_labelLayer
10
343.3417589
20
180.5255872
40
2.3365223
50
239.1066152
51
254.4862993
0
ARC
8
right_labelLayer
10
343.748824
20
181.9291259
40
3.7978397
50
254.2323712
51
263.4937571
0
ARC
8
right_labelLayer
10
344.0045281
20
184.0948717
40
5.9786175
50
263.4108285
51
270.1457407
0
ARC
8
right_labelLayer
10
344.0317315
20
185.6112005
40
7.4949365
50
269.9082963
51
270.0000519
0
ARC
8
right_labelLayer
10
344.0667022
20
187.9242651
40
9.8080634
50
269.7957504
51
275.3991055
0
ARC
8
right_labelLayer
10
344.4337886
20
184.1557611
40
6.0217483
50
275.2956908
51
283.3516053
0
ARC
8
right_labelLayer
10
345.0318479
20
181.6924776
40
3.4869611
50
283.1370452
51
295.8573015
0
ARC
8
right_labelLayer
10
345.4749528
20
180.7251082
40
2.4233004
50
296.4048387
51
301.8007829
0
ARC
8
right_labelLayer
10
345.6487325
20
180.4855601
40
2.1282438
50
301.2230672
51
318.623822
0
ARC
8
right_labelLayer
10
346.0406029
20
180.1235743
40
1.5949669
50
319.0765558
51
1.1407082
0
ARC
8
right_labelLayer
10
345.66135
20
180.1709651
40
1.9739658
50
359.5460748
51
10.9904491
0
ARC
8
right_labelLayer
10
346.4238224
20
180.3260496
40
1.1959314
50
10.6609175
51
30.9361699
0
ARC
8
right_labelLayer
10
346.6655819
20
180.460218
40
0.9196369
50
31.509534
51
58.0778334
0
ARC
8
right_labelLayer
10
346.4389933
20
180.0545026
40
1.3839858
50
58.9972551
51
73.858567
0
ARC
8
right_labelLayer
10
345.9810188
20
178.5552271
40
2.951569
50
73.4099953
51
81.5906942
0
ARC
8
right_labelLayer
10
345.5929779
20
176.0440841
40
5.4924872
50
81.4172154
51
86.5756415
0
ARC
8
right_labelLayer
10
345.3551871
20
172.2606512
40
9.283375
50
86.5054118
51
90.1399014
0
ARC
8
right_labelLayer
10
343.5626294
20
178.1902767
40
3.3537866
50
89.6435136
51
100.02089
0
ARC
8
right_labelLayer
10
343.3518393
20
179.336968
40
2.1879245
50
99.8102954
51
116.8229568
0
ARC
8
right_labelLayer
10
343.1465122
20
179.7699789
40
1.7088959
50
117.2304869
51
130.5022948
0
ARC
8
right_labelLayer
10
343.0410813
20
179.9054841
40
1.5374053
50
130.7944831
51
169.0413282
0
ARC
8
right_labelLayer
10
343.8174362
20
179.7226513
40
2.3345778
50
168.2580879
51
180.3820519
0
ARC
8
right_labelLayer
10
345.1217367
20
187.8503407
40
2.8478942
50
179.5617565
51
191.6529281
0
ARC
8
right_labelLayer
10
344.1315617
20
187.6364081
40
1.8349418
50
191.3555125
51
213.3660292
0
ARC
8
right_labelLayer
10
343.8937588
20
187.4990963
40
1.5608985
50
213.957346
51
227.7972098
0
ARC
8
right_labelLayer
10
344.1006535
20
187.7500245
40
1.885824
50
228.2620945
51
254.7341342
0
ARC
8
right_labelLayer
10
344.3649598
20
188.6560673
40
2.8295358
50
254.4016298
51
267.4348929
0
ARC
8
right_labelLayer
10
344.4339136
20
189.5808291
40
3.7565577
50
267.0154942
51
270.0323586
0
ARC
8
right_labelLayer
10
344.4789897
20
189.0024454
40
3.1784638
50
269.2256665
51
284.3773371
0
ARC
8
right_labelLayer
10
344.9122097
20
187.4931069
40
1.6094499
50
282.7796607
51
346.4828609
0
ARC
8
right_labelLayer
10
343.6170005
20
187.8599853
40
2.9550277
50
345.4361982
51
0.7466092
0
ARC
8
right_labelLayer
10
343.4349322
20
187.9433534
40
3.1371659
50
359.1806185
51
15.0431732
0
ARC
8
right_labelLayer
10
344.8564364
20
188.3580212
40
1.6570497
50
13.9535689
51
77.6673846
0
ARC
8
right_labelLayer
10
344.448591
20
186.896473
40
3.1731548
50
76.1095203
51
90.7028277
0
ARC
8
right_labelLayer
10
344.3875452
20
187.0080944
40
3.0613746
50
89.5859531
51
101.3333751
0
ARC
8
right_labelLayer
10
344.1687684
20
188.0515717
40
1.9952736
50
101.06203
51
121.9739192
0
ARC
8
right_labelLayer
10
344.015013
20
188.3281646
40
1.6793008
50
122.5210582
51
134.996689
0
ARC
8
right_labelLayer
10
344.0783211
20
188.290232
40
1.7509796
50
135.5839764
51
163.0015868
0
ARC
8
right_labelLayer
10
345.002963
20
187.987166
40
2.7238962
50
162.5911728
51
175.7343313
0
ARC
8
right_labelLayer
10
346.1119788
20
187.8779133
40
3.8380573
50
175.3393222
51
180.0864331
0
LINE
8
right_labelLayer
10
359.1928711
20
181.3242718
11
357.7338867
21
181.3242718
0
LINE
8
right_labelLayer
10
357.7338867
20
181.3242718
11
357.7338867
21
187.5557172
0
LINE
8
right_labelLayer
10
352.6010742
20
186.3604047
11
352.6010742
21
181.3242718
0
LINE
8
right_labelLayer
10
352.6010742
20
181.3242718
11
351.1420898
21
181.3242718
0
LINE
8
right_labelLayer
10
351.1420898
20
181.3242718
11
351.1420898
21
195.0000531
0
LINE
8
right_labelLayer
10
351.1420898
20
195.0000531
11
352.6010742
21
195.0000531
0
LINE
8
right_labelLayer
10
352.6010742
20
195.0000531
11
352.6010742
21
190.8604047
0
LINE
8
right_labelLayer
10
352.5307617
20
189.6211468
11
352.6186523
21
189.6211468
0
LINE
8
right_labelLayer
10
359.1928711
20
187.6084515
11
359.1928711
21
181.3242718
0
ARC
8
right_labelLayer
10
353.6097804
20
187.5793691
40
4.1241741
50
359.67141
51
8.6877393
0
ARC
8
right_labelLayer
10
355.1383079
20
187.8217842
40
2.5765829
50
8.4931487
51
22.6579776
0
ARC
8
right_labelLayer
10
355.9149192
20
188.1445204
40
1.7355828
50
22.7024044
51
42.3419863
0
ARC
8
right_labelLayer
10
356.0022103
20
188.1837872
40
1.6448838
50
43.3790737
51
71.5386348
0
ARC
8
right_labelLayer
10
355.6757745
20
187.2716417
40
2.6135415
50
71.0828169
51
84.3691335
0
ARC
8
right_labelLayer
10
355.5292389
20
186.0257617
40
3.8678597
50
84.0197742
51
90.151036
0
ARC
8
right_labelLayer
10
355.4875986
20
185.4786226
40
4.4150972
50
89.5919363
51
100.3595088
0
ARC
8
right_labelLayer
10
355.1749703
20
187.1215286
40
2.742781
50
100.1067808
51
118.0847188
0
ARC
8
right_labelLayer
10
354.8569993
20
187.7454659
40
2.04266
50
118.4550977
51
139.6706285
0
ARC
8
right_labelLayer
10
355.1762217
20
187.5272711
40
2.4275603
50
140.6208188
51
160.5049006
0
ARC
8
right_labelLayer
10
356.8588677
20
186.90436
40
4.2216999
50
160.1566955
51
171.5312669
0
ARC
8
right_labelLayer
10
359.5814362
20
186.4730055
40
6.9781551
50
171.3202553
51
178.3406807
0
ARC
8
right_labelLayer
10
362.0174739
20
186.3641782
40
9.4164005
50
178.107987
51
180.0229605
0
ARC
8
right_labelLayer
10
339.4763305
20
190.84476
40
13.124753
50
357.8674363
51
0.0682965
0
ARC
8
right_labelLayer
10
343.9348314
20
190.6746691
40
8.6630116
50
354.9829043
51
357.8943209
0
ARC
8
right_labelLayer
10
346.8798356
20
190.4182258
40
5.7068643
50
351.9712365
51
354.9619343
0
ARC
8
right_labelLayer
10
355.0899251
20
188.0752795
40
2.9149434
50
119.8315945
51
147.9725844
0
ARC
8
right_labelLayer
10
355.4428631
20
187.533109
40
3.5610282
50
116.6657671
51
120.4183406
0
ARC
8
right_labelLayer
10
355.5087996
20
187.3599351
40
3.7454217
50
96.6652584
51
116.3782576
0
ARC
8
right_labelLayer
10
355.6508042
20
186.3801846
40
4.7351112
50
89.8927469
51
96.9959182
0
ARC
8
right_labelLayer
10
355.6962121
20
185.1961011
40
5.9192992
50
80.6863016
51
90.3537309
0
ARC
8
right_labelLayer
10
356.0647861
20
187.3639977
40
3.7203541
50
65.6022683
51
80.8844043
0
ARC
8
right_labelLayer
10
356.5073777
20
188.3608104
40
2.6297506
50
46.7400641
51
65.4130721
0
ARC
8
right_labelLayer
10
356.5374571
20
188.4557861
40
2.5403378
50
19.220429
51
45.7660652
0
ARC
8
right_labelLayer
10
355.0726699
20
187.9127792
40
4.1023497
50
6.4733953
51
19.646782
0
ARC
8
right_labelLayer
10
352.883947
20
187.6310787
40
6.3089646
50
359.7945073
51
6.7743964
0
LINE
8
right_labelLayer
10
366.6196289
20
182.5283734
11
366.6196289
21
181.4121625
0
LINE
8
right_labelLayer
10
362.2954101
20
184.0928265
11
362.2954101
21
189.8232953
0
LINE
8
right_labelLayer
10
362.2954101
20
189.8232953
11
360.9155273
21
189.8232953
0
LINE
8
right_labelLayer
10
360.9155273
20
189.8232953
11
360.9155273
21
190.5264203
0
LINE
8
right_labelLayer
10
360.9155273
20
190.5264203
11
362.2954101
21
191.1328656
0
LINE
8
right_labelLayer
10
362.2954101
20
191.1328656
11
362.9106445
21
193.1895062
0
LINE
8
right_labelLayer
10
362.9106445
20
193.1895062
11
363.7543945
21
193.1895062
0
LINE
8
right_labelLayer
10
363.7543945
20
193.1895062
11
363.7543945
21
190.9570843
0
LINE
8
right_labelLayer
10
363.7543945
20
190.9570843
11
366.5493164
21
190.9570843
0
LINE
8
right_labelLayer
10
366.5493164
20
190.9570843
11
366.5493164
21
189.8232953
0
LINE
8
right_labelLayer
10
366.5493164
20
189.8232953
11
363.7543945
21
189.8232953
0
LINE
8
right_labelLayer
10
363.7543945
20
189.8232953
11
363.7543945
21
184.15435
0
ARC
8
right_labelLayer
10
365.3112736
20
187.1441058
40
4.7915241
50
269.8803734
51
278.3028161
0
ARC
8
right_labelLayer
10
365.356893
20
186.7713426
40
4.4160888
50
278.4155319
51
279.0081225
0
ARC
8
right_labelLayer
10
364.819284
20
190.2058248
40
7.8923895
50
278.9589452
51
280.510415
0
ARC
8
right_labelLayer
10
365.3316315
20
187.4567374
40
5.0959678
50
280.484797
51
282.6268666
0
ARC
8
right_labelLayer
10
365.7809828
20
185.4604108
40
3.049696
50
282.5876995
51
285.5795307
0
ARC
8
right_labelLayer
10
366.0068723
20
184.6296988
40
2.188844
50
285.7239997
51
286.2569388
0
ARC
8
right_labelLayer
10
366.0062331
20
182.7095281
40
1.4350651
50
287.9888342
51
295.3048312
0
ARC
8
right_labelLayer
10
365.6601327
20
183.7566282
40
2.5378729
50
283.3068466
51
288.1198731
0
ARC
8
right_labelLayer
10
365.2944683
20
185.2819039
40
4.1063633
50
280.0069965
51
283.3735444
0
ARC
8
right_labelLayer
10
365.0501814
20
186.6074363
40
5.4541887
50
279.1861115
51
280.1145117
0
ARC
8
right_labelLayer
10
364.89964
20
187.4637727
40
6.3235865
50
275.5260369
51
279.2939649
0
ARC
8
right_labelLayer
10
365.0688647
20
185.6961948
40
4.5479275
50
270.8932588
51
275.5484126
0
ARC
8
right_labelLayer
10
365.0901112
20
184.8910498
40
3.7425592
50
270.00338
51
270.7601914
0
ARC
8
right_labelLayer
10
365.0314575
20
184.9586905
40
3.8106547
50
253.7847993
51
270.8852531
0
ARC
8
right_labelLayer
10
364.5799969
20
183.4190357
40
2.2061823
50
190.3817746
51
253.8772315
0
ARC
8
right_labelLayer
10
366.8810943
20
184.0412101
40
4.5859747
50
179.3551063
51
192.8477484
0
ARC
8
right_labelLayer
10
366.6922403
20
184.1359745
40
2.9379033
50
179.6416345
51
189.7505939
0
ARC
8
right_labelLayer
10
365.6551077
20
183.9509888
40
1.8844353
50
189.5479465
51
205.7873647
0
ARC
8
right_labelLayer
10
365.2288896
20
183.7544463
40
1.4151851
50
206.1294373
51
221.408377
0
ARC
8
right_labelLayer
10
365.1810976
20
183.7181831
40
1.3553623
50
221.5949156
51
262.3505058
0
ARC
8
right_labelLayer
10
365.2947594
20
184.3026875
40
1.9501062
50
261.3266651
51
270.1912741
0
LINE
8
bottom_outsideCutPath
10
399
20
90
11
399
21
61.86205
0
LINE
8
bottom_outsideCutPath
10
399
20
61.86205
11
396
21
61.86205
0
LINE
8
bottom_outsideCutPath
10
396
20
61.86205
11
396
21
34.13795
0
LINE
8
bottom_outsideCutPath
10
396
20
34.13795
11
399
21
34.13795
0
LINE
8
bottom_outsideCutPath
10
399
20
34.13795
11
399
21
6.41385
0
LINE
8
bottom_outsideCutPath
10
399
20
6.41385
11
399
21
6
0
LINE
8
bottom_outsideCutPath
10
399
20
6
11
421.24155
21
6
0
LINE
8
bottom_outsideCutPath
10
421.24155
20
6
11
421.24155
21
3
0
LINE
8
bottom_outsideCutPath
10
421.24155
20
3
11
448.96565
21
3
0
LINE
8
bottom_outsideCutPath
10
448.96565
20
3
11
448.96565
21
6
0
LINE
8
bottom_outsideCutPath
10
448.96565
20
6
11
476.68975
21
6
0
LINE
8
bottom_outsideCutPath
10
476.68975
20
6
11
476.68975
21
3
0
LINE
8
bottom_outsideCutPath
10
476.68975
20
3
11
504.41385
21
3
0
LINE
8
bottom_outsideCutPath
10
504.41385
20
3
11
504.41385
21
6
0
LINE
8
bottom_outsideCutPath
10
504.41385
20
6
11
532.13795
21
6
0
LINE
8
bottom_outsideCutPath
10
532.13795
20
6
11
532.13795
21
3
0
LINE
8
bottom_outsideCutPath
10
532.13795
20
3
11
559.86205
21
3
0
LINE
8
bottom_outsideCutPath
10
559.86205
20
3
11
559.86205
21
6
0
LINE
8
bottom_outsideCutPath
10
559.86205
20
6
11
587.58615
21
6
0
LINE
8
bottom_outsideCutPath
10
587.58615
20
6
11
587.58615
21
3
0
LINE
8
bottom_outsideCutPath
10
587.58615
20
3
11
615.31025
21
3
0
LINE
8
bottom_outsideCutPath
10
615.31025
20
3
11
615.31025
21
6
0
LINE
8
bottom_outsideCutPath
10
615.31025
20
6
11
643.03435
21
6
0
LINE
8
bottom_outsideCutPath
10
643.03435
20
6
11
643.03435
21
3
0
LINE
8
bottom_outsideCutPath
10
643.03435
20
3
11
670.75845
21
3
0
LINE
8
bottom_outsideCutPath
10
670.75845
20
3
11
670.75845
21
6
0
LINE
8
bottom_outsideCutPath
10
670.75845
20
6
11
693
21
6
0
LINE
8
bottom_outsideCutPath
10
693
20
6
11
693
21
34.13795
0
LINE
8
bottom_outsideCutPath
10
693
20
34.13795
11
696
21
34.13795
0
LINE
8
bottom_outsideCutPath
10
696
20
34.13795
11
696
21
61.86205
0
LINE
8
bottom_outsideCutPath
10
696
20
61.86205
11
693
21
61.86205
0
LINE
8
bottom_outsideCutPath
10
693
20
61.86205
11
693
21
89.58615
0
LINE
8
bottom_outsideCutPath
10
693
20
89.58615
11
693
21
90
0
LINE
8
bottom_outsideCutPath
10
693
20
90
11
670.75845
21
90
0
LINE
8
bottom_outsideCutPath
10
670.75845
20
90
11
670.75845
21
93
0
LINE
8
bottom_outsideCutPath
10
670.75845
20
93
11
643.03435
21
93
0
LINE
8
bottom_outsideCutPath
10
643.03435
20
93
11
643.03435
21
90
0
LINE
8
bottom_outsideCutPath
10
643.03435
20
90
11
615.31025
21
90
0
LINE
8
bottom_outsideCutPath
10
615.31025
20
90
11
615.31025
21
93
0
LINE
8
bottom_outsideCutPath
10
615.31025
20
93
11
587.58615
21
93
0
LINE
8
bottom_outsideCutPath
10
587.58615
20
93
11
587.58615
21
90
0
LINE
8
bottom_outsideCutPath
10
587.58615
20
90
11
559.86205
21
90
0
LINE
8
bottom_outsideCutPath
10
559.86205
20
90
11
559.86205
21
93
0
LINE
8
bottom_outsideCutPath
10
559.86205
20
93
11
532.13795
21
93
0
LINE
8
bottom_outsideCutPath
10
532.13795
20
93
11
532.13795
21
90
0
LINE
8
bottom_outsideCutPath
10
532.13795
20
90
11
504.41385
21
90
0
LINE
8
bottom_outsideCutPath
10
504.41385
20
90
11
504.41385
21
93
0
LINE
8
bottom_outsideCutPath
10
504.41385
20
93
11
476.68975
21
93
0
LINE
8
bottom_outsideCutPath
10
476.68975
20
93
11
476.68975
21
90
0
LINE
8
bottom_outsideCutPath
10
476.68975
20
90
11
448.96565
21
90
0
LINE
8
bottom_outsideCutPath
10
448.96565
20
90
11
448.96565
21
93
0
LINE
8
bottom_outsideCutPath
10
448.96565
20
93
11
421.24155
21
93
0
LINE
8
bottom_outsideCutPath
10
421.24155
20
93
11
421.24155
21
90
0
LINE
8
bottom_outsideCutPath
10
421.24155
20
90
11
399
21
90
0
LINE
8
bottom_labelLayer
10
517.8485902
20
42.4894852
11
517.7431214
21
42.4894852
0
LINE
8
bottom_labelLayer
10
517.7431214
20
42.4894852
11
517.4355043
21
41.2502274
0
LINE
8
bottom_labelLayer
10
517.4355043
20
41.2502274
11
516.3896058
21
41.2502274
0
LINE
8
bottom_labelLayer
10
516.3896058
20
41.2502274
11
516.3896058
21
54.9260087
0
LINE
8
bottom_labelLayer
10
516.3896058
20
54.9260087
11
517.8485902
21
54.9260087
0
LINE
8
bottom_labelLayer
10
517.8485902
20
54.9260087
11
517.8485902
21
51.603743
0
LINE
8
bottom_labelLayer
10
517.7782777
20
49.5998368
11
517.8485902
21
49.5998368
0
ARC
8
bottom_labelLayer
10
520.9157952
20
46.5822929
40
4.4591649
50
74.2393389
51
90.5623771
0
ARC
8
bottom_labelLayer
10
521.21065
20
47.6639833
40
3.3380677
50
38.5631251
51
74.0670332
0
ARC
8
bottom_labelLayer
10
520.4518592
20
47.0739783
40
4.2991941
50
16.4709182
51
38.4075365
0
ARC
8
bottom_labelLayer
10
518.2658953
20
46.3885219
40
6.5899078
50
5.1338333
51
16.7973493
0
ARC
8
bottom_labelLayer
10
515.5063344
20
46.0953768
40
9.3647381
50
359.8779162
51
5.4093813
0
ARC
8
bottom_labelLayer
10
516.3168188
20
46.0249553
40
8.5543812
50
350.6562914
51
0.3380242
0
ARC
8
bottom_labelLayer
10
519.2990347
20
45.5177134
40
5.5294029
50
335.8305854
51
350.825498
0
ARC
8
bottom_labelLayer
10
520.6108411
20
44.9515177
40
4.1008214
50
321.3161425
51
335.5436233
0
ARC
8
bottom_labelLayer
10
521.1123529
20
44.5428618
40
3.4539233
50
274.06401
51
321.4080969
0
ARC
8
bottom_labelLayer
10
520.8787126
20
46.0228222
40
4.9483807
50
269.9225978
51
275.5481788
0
ARC
8
bottom_labelLayer
10
520.8474248
20
45.4997972
40
4.4254194
50
255.7755401
51
270.3185346
0
ARC
8
bottom_labelLayer
10
520.7211372
20
44.938713
40
3.8505374
50
245.9801819
51
255.545576
0
ARC
8
bottom_labelLayer
10
520.4765249
20
44.3698623
40
3.2313864
50
215.5850142
51
245.8361673
0
ARC
8
bottom_labelLayer
10
487.429447
20
51.5780327
40
30.419154
50
358.1123394
51
0.0484265
0
ARC
8
bottom_labelLayer
10
495.8956244
20
51.2938155
40
21.9482094
50
355.7238801
51
358.1258817
0
ARC
8
bottom_labelLayer
10
499.5834223
20
51.0408229
40
18.2518274
50
355.4717722
51
355.652667
0
ARC
8
bottom_labelLayer
10
520.5695321
20
47.7024511
40
3.3171671
50
95.1835089
51
145.1109045
0
ARC
8
bottom_labelLayer
10
520.8610973
20
46.0583116
40
4.9829435
50
89.8743183
51
96.8145613
0
ARC
8
bottom_labelLayer
10
520.6305466
20
45.7198036
40
4.0998736
50
89.5731485
51
100.7324259
0
ARC
8
bottom_labelLayer
10
520.3270423
20
47.2532157
40
2.5367967
50
100.4469586
51
119.6700643
0
ARC
8
bottom_labelLayer
10
520.0456
20
47.7794056
40
1.9403456
50
120.1402845
51
142.4249026
0
ARC
8
bottom_labelLayer
10
520.511216
20
47.4713848
40
2.4975204
50
143.3382189
51
161.2560134
0
ARC
8
bottom_labelLayer
10
522.4583371
20
46.780089
40
4.5636065
50
160.8926184
51
171.2334535
0
ARC
8
bottom_labelLayer
10
525.708901
20
46.2556958
40
7.8561513
50
171.0667883
51
177.8456689
0
ARC
8
bottom_labelLayer
10
529.0892999
20
46.0837721
40
11.2407126
50
177.6176796
51
180.0425583
0
ARC
8
bottom_labelLayer
10
527.4951598
20
46.0377523
40
9.6466432
50
179.7762577
51
185.7075417
0
ARC
8
bottom_labelLayer
10
523.6918624
20
45.6458751
40
5.8232399
50
185.5924843
51
194.2050628
0
ARC
8
bottom_labelLayer
10
521.2554634
20
45.0135441
40
3.306202
50
193.9430153
51
208.0218632
0
ARC
8
bottom_labelLayer
10
520.2696955
20
44.5120551
40
2.2004883
50
208.5536498
51
217.5605785
0
ARC
8
bottom_labelLayer
10
520.1893929
20
44.4786575
40
2.116592
50
218.1690622
51
253.8047108
0
ARC
8
bottom_labelLayer
10
520.5819795
20
45.6890451
40
3.3886738
50
253.1382555
51
266.8483068
0
ARC
8
bottom_labelLayer
10
520.6920697
20
46.9873228
40
4.691199
50
266.3775366
51
270.0510126
0
ARC
8
bottom_labelLayer
10
520.7273694
20
45.204428
40
2.9084687
50
269.3868765
51
285.8630654
0
ARC
8
bottom_labelLayer
10
520.9434499
20
44.4234836
40
2.0982086
50
286.0162882
51
326.8497398
0
ARC
8
bottom_labelLayer
10
519.9005329
20
45.1143792
40
3.3491966
50
326.7104887
51
343.6661765
0
ARC
8
bottom_labelLayer
10
517.9482561
20
45.7109319
40
5.3904997
50
343.4171341
51
353.6369296
0
ARC
8
bottom_labelLayer
10
514.9995278
20
46.0608201
40
8.3598663
50
353.4934824
51
0.2205566
0
ARC
8
bottom_labelLayer
10
514.7395778
20
46.1278901
40
8.6198251
50
359.7680915
51
6.3095207
0
ARC
8
bottom_labelLayer
10
517.9865044
20
46.5004948
40
5.3516342
50
6.1648558
51
16.0396383
0
ARC
8
bottom_labelLayer
10
520.0781012
20
47.1168871
40
3.171184
50
15.7779532
51
32.0151096
0
ARC
8
bottom_labelLayer
10
520.7303601
20
47.4904125
40
2.420281
50
32.7034262
51
35.5242813
0
ARC
8
bottom_labelLayer
10
520.9688925
20
47.6599534
40
2.1276356
50
35.540832
51
79.8011279
0
ARC
8
bottom_labelLayer
10
520.6831733
20
46.4453126
40
3.3743231
50
78.6781094
51
90.374972
0
ARC
8
bottom_labelLayer
10
528.1982559
20
46.0246169
40
7.5362478
50
349.1761857
51
0.3862637
0
ARC
8
bottom_labelLayer
10
530.7355265
20
45.5188069
40
4.949173
50
330.2507133
51
349.4116406
0
ARC
8
bottom_labelLayer
10
531.5163812
20
45.1129485
40
4.0699932
50
318.143968
51
329.7566355
0
ARC
8
bottom_labelLayer
10
531.6573075
20
45.0000095
40
3.8896806
50
278.8959145
51
317.9979173
0
ARC
8
bottom_labelLayer
10
531.2941801
20
46.7397929
40
5.6654004
50
269.7502873
51
279.8033087
0
ARC
8
bottom_labelLayer
10
531.2352886
20
45.7595347
40
4.6852134
50
253.5437049
51
270.418238
0
ARC
8
bottom_labelLayer
10
531.0793246
20
45.1562269
40
4.0624933
50
238.8115404
51
253.2428413
0
ARC
8
bottom_labelLayer
10
531.0289913
20
45.0550096
40
3.9498509
50
207.7946989
51
238.6758053
0
ARC
8
bottom_labelLayer
10
531.7513523
20
45.4974086
40
4.7954714
50
205.6560253
51
208.4460689
0
ARC
8
bottom_labelLayer
10
532.3075692
20
45.7291575
40
5.3972849
50
188.9102436
51
205.3171388
0
ARC
8
bottom_labelLayer
10
534.1823969
20
46.0466932
40
7.298707
50
179.774469
51
189.0932874
0
ARC
8
bottom_labelLayer
10
534.4589631
20
46.1267322
40
7.5753904
50
169.2442967
51
180.3880775
0
ARC
8
bottom_labelLayer
10
531.8864197
20
46.6352307
40
4.9531832
50
150.7111472
51
169.4695426
0
ARC
8
bottom_labelLayer
10
531.0651789
20
47.0569688
40
4.0307495
50
138.1759298
51
150.2287456
0
ARC
8
bottom_labelLayer
10
530.9285782
20
47.1617941
40
3.8590748
50
99.1759393
51
137.9832718
0
ARC
8
bottom_labelLayer
10
531.3045708
20
45.3923296
40
5.6665533
50
89.7326454
51
100.0759818
0
ARC
8
bottom_labelLayer
10
531.3797174
20
46.1565025
40
4.9025606
50
73.5222838
51
90.5692246
0
ARC
8
bottom_labelLayer
10
531.6672237
20
47.2010911
40
3.8193795
50
41.1445673
51
73.2133872
0
ARC
8
bottom_labelLayer
10
531.1183962
20
46.7293818
40
4.5430453
50
13.5014436
51
41.0703389
0
ARC
8
bottom_labelLayer
10
528.9980151
20
46.1745067
40
6.7345211
50
1.1277231
51
13.8800035
0
ARC
8
bottom_labelLayer
10
527.1708929
20
46.0766259
40
8.5634395
50
359.9919502
51
1.5418968
0
ARC
8
bottom_labelLayer
10
535.7836142
20
46.0375056
40
7.3882463
50
179.7059517
51
187.9160916
0
ARC
8
bottom_labelLayer
10
533.0738511
20
45.6482498
40
4.650712
50
187.7639357
51
200.0976923
0
ARC
8
bottom_labelLayer
10
531.5810395
20
45.1012815
40
3.0608505
50
200.0845948
51
216.9131603
0
ARC
8
bottom_labelLayer
10
531.0359171
20
44.7120388
40
2.3912738
50
217.3009596
51
261.7099029
0
ARC
8
bottom_labelLayer
10
531.2889821
20
45.9196501
40
3.6235581
50
260.5033407
51
270.2476612
0
ARC
8
bottom_labelLayer
10
531.3372843
20
45.6848107
40
3.388842
50
269.4481511
51
284.7255753
0
ARC
8
bottom_labelLayer
10
531.6055582
20
44.6898701
40
2.3583975
50
284.5662359
51
322.6333794
0
ARC
8
bottom_labelLayer
10
530.9783163
20
45.1430237
40
3.1320016
50
323.0089342
51
342.639046
0
ARC
8
bottom_labelLayer
10
529.1842915
20
45.7293644
40
5.019315
50
342.3615507
51
353.7537764
0
ARC
8
bottom_labelLayer
10
526.5374792
20
46.0484046
40
7.6851818
50
353.5363078
51
0.2014305
0
ARC
8
bottom_labelLayer
10
526.9430014
20
46.1125793
40
7.2797071
50
359.7075537
51
7.8972679
0
ARC
8
bottom_labelLayer
10
529.6090278
20
46.4947791
40
4.5864683
50
7.7439844
51
20.0690095
0
ARC
8
bottom_labelLayer
10
531.0946471
20
47.0399446
40
3.003982
50
20.0257089
51
37.4350472
0
ARC
8
bottom_labelLayer
10
531.5875648
20
47.3897112
40
2.4000743
50
37.9577678
51
80.4006153
0
ARC
8
bottom_labelLayer
10
531.3074563
20
46.1398876
40
3.6797322
50
79.3453625
51
90.3174798
0
ARC
8
bottom_labelLayer
10
531.2555899
20
46.3474932
40
3.4722129
50
89.4805859
51
103.8804965
0
ARC
8
bottom_labelLayer
10
530.9638345
20
47.4584978
40
2.3237201
50
103.4685178
51
142.3118975
0
ARC
8
bottom_labelLayer
10
531.5310335
20
47.059603
40
3.0166031
50
142.9025812
51
162.3749493
0
ARC
8
bottom_labelLayer
10
533.3182719
20
46.4640119
40
4.9003542
50
162.0653252
51
173.1674855
0
ARC
8
bottom_labelLayer
10
536.1050416
20
46.1085744
40
7.7096478
50
173.0086077
51
180.246374
0
LINE
8
bottom_labelLayer
10
542.7216371
20
42.454329
11
542.7216371
21
41.338118
0
LINE
8
bottom_labelLayer
10
538.3974183
20
44.0187821
11
538.3974183
21
49.7492509
0
LINE
8
bottom_labelLayer
10
538.3974183
20
49.7492509
11
537.0175355
21
49.7492509
0
LINE
8
bottom_labelLayer
10
537.0175355
20
49.7492509
11
537.0175355
21
50.4523759
0
LINE
8
bottom_labelLayer
10
537.0175355
20
50.4523759
11
538.3974183
21
51.0588212
0
LINE
8
bottom_labelLayer
10
538.3974183
20
51.0588212
11
539.0126527
21
53.1154618
0
LINE
8
bottom_labelLayer
10
539.0126527
20
53.1154618
11
539.8564027
21
53.1154618
0
LINE
8
bottom_labelLayer
10
539.8564027
20
53.1154618
11
539.8564027
21
50.8830399
0
LINE
8
bottom_labelLayer
10
539.8564027
20
50.8830399
11
542.6513246
21
50.8830399
0
LINE
8
bottom_labelLayer
10
542.6513246
20
50.8830399
11
542.6513246
21
49.7492509
0
LINE
8
bottom_labelLayer
10
542.6513246
20
49.7492509
11
539.8564027
21
49.7492509
0
LINE
8
bottom_labelLayer
10
539.8564027
20
49.7492509
11
539.8564027
21
44.0803055
0
ARC
8
bottom_labelLayer
10
541.4132818
20
47.0700614
40
4.7915241
50
269.8803734
51
278.3028161
0
ARC
8
bottom_labelLayer
10
541.4589012
20
46.6972982
40
4.4160888
50
278.4155319
51
279.0081225
0
ARC
8
bottom_labelLayer
10
540.9212922
20
50.1317804
40
7.8923895
50
278.9589452
51
280.510415
0
ARC
8
bottom_labelLayer
10
541.4336397
20
47.3826929
40
5.0959678
50
280.484797
51
282.6268666
0
ARC
8
bottom_labelLayer
10
541.882991
20
45.3863664
40
3.049696
50
282.5876995
51
285.5795307
0
ARC
8
bottom_labelLayer
10
542.1088805
20
44.5556543
40
2.188844
50
285.7239997
51
286.2569388
0
ARC
8
bottom_labelLayer
10
542.1082413
20
42.6354836
40
1.4350651
50
287.9888342
51
295.3048312
0
ARC
8
bottom_labelLayer
10
541.7621409
20
43.6825838
40
2.5378729
50
283.3068466
51
288.1198731
0
ARC
8
bottom_labelLayer
10
541.3964764
20
45.2078594
40
4.1063633
50
280.0069965
51
283.3735444
0
ARC
8
bottom_labelLayer
10
541.1521896
20
46.5333918
40
5.4541887
50
279.1861115
51
280.1145117
0
ARC
8
bottom_labelLayer
10
541.0016482
20
47.3897283
40
6.3235865
50
275.5260369
51
279.2939649
0
ARC
8
bottom_labelLayer
10
541.1708729
20
45.6221503
40
4.5479275
50
270.8932588
51
275.5484126
0
ARC
8
bottom_labelLayer
10
541.1921194
20
44.8170054
40
3.7425592
50
270.00338
51
270.7601914
0
ARC
8
bottom_labelLayer
10
541.1334657
20
44.8846461
40
3.8106547
50
253.7847993
51
270.8852531
0
ARC
8
bottom_labelLayer
10
540.6820051
20
43.3449913
40
2.2061823
50
190.3817746
51
253.8772315
0
ARC
8
bottom_labelLayer
10
542.9831025
20
43.9671657
40
4.5859747
50
179.3551063
51
192.8477484
0
ARC
8
bottom_labelLayer
10
542.7942485
20
44.0619301
40
2.9379033
50
179.6416345
51
189.7505939
0
ARC
8
bottom_labelLayer
10
541.7571159
20
43.8769444
40
1.8844353
50
189.5479465
51
205.7873647
0
ARC
8
bottom_labelLayer
10
541.3308978
20
43.6804019
40
1.4151851
50
206.1294373
51
221.408377
0
ARC
8
bottom_labelLayer
10
541.2831058
20
43.6441386
40
1.3553623
50
221.5949156
51
262.3505058
0
ARC
8
bottom_labelLayer
10
541.3967675
20
44.2286431
40
1.9501062
50
261.3266651
51
270.1912741
0
LINE
8
bottom_labelLayer
10
549.0761293
20
42.454329
11
549.0761293
21
41.338118
0
LINE
8
bottom_labelLayer
10
544.7519105
20
44.0187821
11
544.7519105
21
49.7492509
0
LINE
8
bottom_labelLayer
10
544.7519105
20
49.7492509
11
543.3720277
21
49.7492509
0
LINE
8
bottom_labelLayer
10
543.3720277
20
49.7492509
11
543.3720277
21
50.4523759
0
LINE
8
bottom_labelLayer
10
543.3720277
20
50.4523759
11
544.7519105
21
51.0588212
0
LINE
8
bottom_labelLayer
10
544.7519105
20
51.0588212
11
545.3671449
21
53.1154618
0
LINE
8
bottom_labelLayer
10
545.3671449
20
53.1154618
11
546.2108949
21
53.1154618
0
LINE
8
bottom_labelLayer
10
546.2108949
20
53.1154618
11
546.2108949
21
50.8830399
0
LINE
8
bottom_labelLayer
10
546.2108949
20
50.8830399
11
549.0058168
21
50.8830399
0
LINE
8
bottom_labelLayer
10
549.0058168
20
50.8830399
11
549.0058168
21
49.7492509
0
LINE
8
bottom_labelLayer
10
549.0058168
20
49.7492509
11
546.2108949
21
49.7492509
0
LINE
8
bottom_labelLayer
10
546.2108949
20
49.7492509
11
546.2108949
21
44.0803055
0
ARC
8
bottom_labelLayer
10
547.767774
20
47.0700614
40
4.7915241
50
269.8803734
51
278.3028161
0
ARC
8
bottom_labelLayer
10
547.8133934
20
46.6972982
40
4.4160888
50
278.4155319
51
279.0081225
0
ARC
8
bottom_labelLayer
10
547.2757844
20
50.1317804
40
7.8923895
50
278.9589452
51
280.510415
0
ARC
8
bottom_labelLayer
10
547.7881319
20
47.3826929
40
5.0959678
50
280.484797
51
282.6268666
0
ARC
8
bottom_labelLayer
10
548.2374831
20
45.3863664
40
3.049696
50
282.5876995
51
285.5795307
0
ARC
8
bottom_labelLayer
10
548.4633727
20
44.5556543
40
2.188844
50
285.7239997
51
286.2569388
0
ARC
8
bottom_labelLayer
10
548.4627335
20
42.6354836
40
1.4350651
50
287.9888342
51
295.3048312
0
ARC
8
bottom_labelLayer
10
548.1166331
20
43.6825838
40
2.5378729
50
283.3068466
51
288.1198731
0
ARC
8
bottom_labelLayer
10
547.7509686
20
45.2078594
40
4.1063633
50
280.0069965
51
283.3735444
0
ARC
8
bottom_labelLayer
10
547.5066817
20
46.5333918
40
5.4541887
50
279.1861115
51
280.1145117
0
ARC
8
bottom_labelLayer
10
547.3561404
20
47.3897283
40
6.3235865
50
275.5260369
51
279.2939649
0
ARC
8
bottom_labelLayer
10
547.5253651
20
45.6221503
40
4.5479275
50
270.8932588
51
275.5484126
0
ARC
8
bottom_labelLayer
10
547.5466116
20
44.8170054
40
3.7425592
50
270.00338
51
270.7601914
0
ARC
8
bottom_labelLayer
10
547.4879579
20
44.8846461
40
3.8106547
50
253.7847993
51
270.8852531
0
ARC
8
bottom_labelLayer
10
547.0364973
20
43.3449913
40
2.2061823
50
190.3817746
51
253.8772315
0
ARC
8
bottom_labelLayer
10
549.3375947
20
43.9671657
40
4.5859747
50
179.3551063
51
192.8477484
0
ARC
8
bottom_labelLayer
10
549.1487407
20
44.0619301
40
2.9379033
50
179.6416345
51
189.7505939
0
ARC
8
bottom_labelLayer
10
548.111608
20
43.8769444
40
1.8844353
50
189.5479465
51
205.7873647
0
ARC
8
bottom_labelLayer
10
547.68539
20
43.6804019
40
1.4151851
50
206.1294373
51
221.408377
0
ARC
8
bottom_labelLayer
10
547.637598
20
43.6441386
40
1.3553623
50
221.5949156
51
262.3505058
0
ARC
8
bottom_labelLayer
10
547.7512597
20
44.2286431
40
1.9501062
50
261.3266651
51
270.1912741
0
ARC
8
bottom_labelLayer
10
551.7793105
20
46.0246169
40
7.5362478
50
349.1761857
51
0.3862637
0
ARC
8
bottom_labelLayer
10
554.3165812
20
45.5188069
40
4.949173
50
330.2507133
51
349.4116406
0
ARC
8
bottom_labelLayer
10
555.0974358
20
45.1129485
40
4.0699932
50
318.143968
51
329.7566355
0
ARC
8
bottom_labelLayer
10
555.2383622
20
45.0000095
40
3.8896806
50
278.8959145
51
317.9979173
0
ARC
8
bottom_labelLayer
10
554.8752348
20
46.7397929
40
5.6654004
50
269.7502873
51
279.8033087
0
ARC
8
bottom_labelLayer
10
554.8163433
20
45.7595347
40
4.6852134
50
253.5437049
51
270.418238
0
ARC
8
bottom_labelLayer
10
554.6603793
20
45.1562269
40
4.0624933
50
238.8115404
51
253.2428413
0
ARC
8
bottom_labelLayer
10
554.610046
20
45.0550096
40
3.9498509
50
207.7946989
51
238.6758053
0
ARC
8
bottom_labelLayer
10
555.332407
20
45.4974086
40
4.7954714
50
205.6560253
51
208.4460689
0
ARC
8
bottom_labelLayer
10
555.8886239
20
45.7291575
40
5.3972849
50
188.9102436
51
205.3171388
0
ARC
8
bottom_labelLayer
10
557.7634516
20
46.0466932
40
7.298707
50
179.774469
51
189.0932874
0
ARC
8
bottom_labelLayer
10
558.0400178
20
46.1267322
40
7.5753904
50
169.2442967
51
180.3880775
0
ARC
8
bottom_labelLayer
10
555.4674744
20
46.6352307
40
4.9531832
50
150.7111472
51
169.4695426
0
ARC
8
bottom_labelLayer
10
554.6462336
20
47.0569688
40
4.0307495
50
138.1759298
51
150.2287456
0
ARC
8
bottom_labelLayer
10
554.5096329
20
47.1617941
40
3.8590748
50
99.1759393
51
137.9832718
0
ARC
8
bottom_labelLayer
10
554.8856255
20
45.3923296
40
5.6665533
50
89.7326454
51
100.0759818
0
ARC
8
bottom_labelLayer
10
554.9607721
20
46.1565025
40
4.9025606
50
73.5222838
51
90.5692246
0
ARC
8
bottom_labelLayer
10
555.2482784
20
47.2010911
40
3.8193795
50
41.1445673
51
73.2133872
0
ARC
8
bottom_labelLayer
10
554.6994509
20
46.7293818
40
4.5430453
50
13.5014436
51
41.0703389
0
ARC
8
bottom_labelLayer
10
552.5790698
20
46.1745067
40
6.7345211
50
1.1277231
51
13.8800035
0
ARC
8
bottom_labelLayer
10
550.7519476
20
46.0766259
40
8.5634395
50
359.9919502
51
1.5418968
0
ARC
8
bottom_labelLayer
10
559.3646689
20
46.0375056
40
7.3882463
50
179.7059517
51
187.9160916
0
ARC
8
bottom_labelLayer
10
556.6549058
20
45.6482498
40
4.650712
50
187.7639357
51
200.0976923
0
ARC
8
bottom_labelLayer
10
555.1620942
20
45.1012815
40
3.0608505
50
200.0845948
51
216.9131603
0
ARC
8
bottom_labelLayer
10
554.6169718
20
44.7120388
40
2.3912738
50
217.3009596
51
261.7099029
0
ARC
8
bottom_labelLayer
10
554.8700368
20
45.9196501
40
3.6235581
50
260.5033407
51
270.2476612
0
ARC
8
bottom_labelLayer
10
554.918339
20
45.6848107
40
3.388842
50
269.4481511
51
284.7255753
0
ARC
8
bottom_labelLayer
10
555.1866129
20
44.6898701
40
2.3583975
50
284.5662359
51
322.6333794
0
ARC
8
bottom_labelLayer
10
554.559371
20
45.1430237
40
3.1320016
50
323.0089342
51
342.639046
0
ARC
8
bottom_labelLayer
10
552.7653462
20
45.7293644
40
5.019315
50
342.3615507
51
353.7537764
0
ARC
8
bottom_labelLayer
10
550.1185339
20
46.0484046
40
7.6851818
50
353.5363078
51
0.2014305
0
ARC
8
bottom_labelLayer
10
550.524056
20
46.1125793
40
7.2797071
50
359.7075537
51
7.8972679
0
ARC
8
bottom_labelLayer
10
553.1900825
20
46.4947791
40
4.5864683
50
7.7439844
51
20.0690095
0
ARC
8
bottom_labelLayer
10
554.6757018
20
47.0399446
40
3.003982
50
20.0257089
51
37.4350472
0
ARC
8
bottom_labelLayer
10
555.1686195
20
47.3897112
40
2.4000743
50
37.9577678
51
80.4006153
0
ARC
8
bottom_labelLayer
10
554.888511
20
46.1398876
40
3.6797322
50
79.3453625
51
90.3174798
0
ARC
8
bottom_labelLayer
10
554.8366446
20
46.3474932
40
3.4722129
50
89.4805859
51
103.8804965
0
ARC
8
bottom_labelLayer
10
554.5448891
20
47.4584978
40
2.3237201
50
103.4685178
51
142.3118975
0
ARC
8
bottom_labelLayer
10
555.1120882
20
47.059603
40
3.0166031
50
142.9025812
51
162.3749493
0
ARC
8
bottom_labelLayer
10
556.8993266
20
46.4640119
40
4.9003542
50
162.0653252
51
173.1674855
0
ARC
8
bottom_labelLayer
10
559.6860962
20
46.1085744
40
7.7096478
50
173.0086077
51
180.246374
0
LINE
8
bottom_labelLayer
10
575.6103089
20
41.2502274
11
574.1513246
21
41.2502274
0
LINE
8
bottom_labelLayer
10
574.1513246
20
41.2502274
11
574.1513246
21
47.516829
0
LINE
8
bottom_labelLayer
10
569.4667543
20
46.6291337
11
569.4667543
21
41.2502274
0
LINE
8
bottom_labelLayer
10
569.4667543
20
41.2502274
11
568.0077699
21
41.2502274
0
LINE
8
bottom_labelLayer
10
568.0077699
20
41.2502274
11
568.0077699
21
47.516829
0
LINE
8
bottom_labelLayer
10
563.3319886
20
46.3039384
11
563.3319886
21
41.2502274
0
LINE
8
bottom_labelLayer
10
563.3319886
20
41.2502274
11
561.8730043
21
41.2502274
0
LINE
8
bottom_labelLayer
10
561.8730043
20
41.2502274
11
561.8730043
21
50.8830399
0
LINE
8
bottom_labelLayer
10
561.8730043
20
50.8830399
11
563.0595277
21
50.8830399
0
LINE
8
bottom_labelLayer
10
563.0595277
20
50.8830399
11
563.2968324
21
49.5646805
0
LINE
8
bottom_labelLayer
10
563.2968324
20
49.5646805
11
563.3671449
21
49.5646805
0
LINE
8
bottom_labelLayer
10
569.1679261
20
49.4240555
11
569.2382386
21
49.4240555
0
LINE
8
bottom_labelLayer
10
575.6103089
20
47.5344071
11
575.6103089
21
41.2502274
0
ARC
8
bottom_labelLayer
10
569.8472669
20
47.5397522
40
4.3041187
50
359.6948481
51
8.1471666
0
ARC
8
bottom_labelLayer
10
571.4326096
20
47.7743662
40
2.7015385
50
7.9864608
51
20.7949638
0
ARC
8
bottom_labelLayer
10
572.3089408
20
48.1100568
40
1.7631179
50
20.7071126
51
40.0217518
0
ARC
8
bottom_labelLayer
10
572.501188
20
48.235841
40
1.5352486
50
41.040811
51
73.1792447
0
ARC
8
bottom_labelLayer
10
572.2230081
20
47.3944783
40
2.4212199
50
72.6395656
51
86.2568108
0
ARC
8
bottom_labelLayer
10
572.1338882
20
46.4327548
40
3.386811
50
85.8145186
51
90.0684818
0
ARC
8
bottom_labelLayer
10
572.1011503
20
46.0654756
40
3.7541974
50
89.562137
51
101.2961695
0
ARC
8
bottom_labelLayer
10
571.8183944
20
47.4191224
40
2.3714183
50
101.0032134
51
121.7840694
0
ARC
8
bottom_labelLayer
10
571.6034338
20
47.8028877
40
1.9320764
50
122.3597315
51
140.2884028
0
ARC
8
bottom_labelLayer
10
571.9901765
20
47.5193153
40
2.410941
50
140.9765373
51
161.1699384
0
ARC
8
bottom_labelLayer
10
573.4471219
20
47.0008219
40
3.957314
50
160.8731777
51
172.5272384
0
ARC
8
bottom_labelLayer
10
575.881666
20
46.6645957
40
6.4149306
50
172.3776664
51
180.1829382
0
ARC
8
bottom_labelLayer
10
577.4714539
20
46.6292494
40
8.0046996
50
179.8936052
51
180.0008283
0
ARC
8
bottom_labelLayer
10
563.7037122
20
47.5397522
40
4.3041187
50
359.6948481
51
8.1471666
0
ARC
8
bottom_labelLayer
10
565.2890549
20
47.7743662
40
2.7015385
50
7.9864608
51
20.7949638
0
ARC
8
bottom_labelLayer
10
566.1653861
20
48.1100568
40
1.7631179
50
20.7071126
51
40.0217518
0
ARC
8
bottom_labelLayer
10
566.3616308
20
48.2386029
40
1.5304202
50
41.0610865
51
72.8993451
0
ARC
8
bottom_labelLayer
10
566.0781794
20
47.3947316
40
2.4204401
50
72.3601351
51
85.956164
0
ARC
8
bottom_labelLayer
10
565.982228
20
46.4030827
40
3.4164839
50
85.5237889
51
90.0793503
0
ARC
8
bottom_labelLayer
10
565.9494995
20
46.1959734
40
3.6236981
50
89.5573249
51
101.4832173
0
ARC
8
bottom_labelLayer
10
565.6713662
20
47.4990851
40
2.2913374
50
101.1546117
51
123.0655951
0
ARC
8
bottom_labelLayer
10
565.4823073
20
47.8284145
40
1.9123118
50
123.7020388
51
142.3022296
0
ARC
8
bottom_labelLayer
10
565.9251618
20
47.5279744
40
2.446661
50
143.0769531
51
161.3914134
0
ARC
8
bottom_labelLayer
10
567.7103062
20
46.8975007
40
4.3397537
50
161.0234432
51
171.4468969
0
ARC
8
bottom_labelLayer
10
570.6655874
20
46.4345679
40
7.3310402
50
171.3042085
51
178.3501431
0
ARC
8
bottom_labelLayer
10
573.490198
20
46.3084271
40
10.1582102
50
178.0976588
51
180.0253182
0
ARC
8
bottom_labelLayer
10
565.8388611
20
48.1111901
40
2.8674057
50
117.1209531
51
149.5423813
0
ARC
8
bottom_labelLayer
10
566.1315058
20
47.5910508
40
3.4638403
50
93.8343386
51
117.507211
0
ARC
8
bottom_labelLayer
10
566.2123355
20
46.8750912
40
4.1837308
50
89.9662339
51
94.2831421
0
ARC
8
bottom_labelLayer
10
566.260762
20
46.2823152
40
4.7767271
50
77.5572317
51
90.5512988
0
ARC
8
bottom_labelLayer
10
566.7039902
20
48.1887227
40
2.8196841
50
52.7027098
51
78.0053869
0
ARC
8
bottom_labelLayer
10
566.8619026
20
48.4825248
40
2.4908282
50
22.2097966
51
51.4970508
0
ARC
8
bottom_labelLayer
10
571.881252
20
47.9093389
40
3.0462905
50
119.4041714
51
150.182885
0
ARC
8
bottom_labelLayer
10
572.2189632
20
47.3958194
40
3.6597046
50
118.25831
51
120.063069
0
ARC
8
bottom_labelLayer
10
572.218139
20
47.3580137
40
3.6926614
50
95.8635186
51
117.9693208
0
ARC
8
bottom_labelLayer
10
572.3431112
20
46.454385
40
4.6044406
50
89.9196695
51
96.2617716
0
ARC
8
bottom_labelLayer
10
572.3832359
20
45.9874261
40
5.0715068
50
79.9361069
51
90.3803828
0
ARC
8
bottom_labelLayer
10
572.7211573
20
47.8175733
40
3.2104945
50
62.9723161
51
80.1665146
0
ARC
8
bottom_labelLayer
10
573.0744077
20
48.5423072
40
2.4044313
50
44.2290225
51
62.6228973
0
ARC
8
bottom_labelLayer
10
572.9693452
20
48.4958971
40
2.5124058
50
19.5611987
51
43.3161261
0
ARC
8
bottom_labelLayer
10
571.4434536
20
47.9227702
40
4.1422229
50
7.5041756
51
19.964539
0
ARC
8
bottom_labelLayer
10
568.9185245
20
47.5681929
40
6.6918697
50
359.7107252
51
7.690731
0
ENDSEC
0
EOF